G04 #@! TF.GenerationSoftware,KiCad,Pcbnew,(5.0.0)*
G04 #@! TF.CreationDate,2019-04-25T11:09:40+03:00*
G04 #@! TF.ProjectId,Single_transistor_AMP,53696E676C655F7472616E736973746F,rev?*
G04 #@! TF.SameCoordinates,Original*
G04 #@! TF.FileFunction,Legend,Top*
G04 #@! TF.FilePolarity,Positive*
%FSLAX46Y46*%
G04 Gerber Fmt 4.6, Leading zero omitted, Abs format (unit mm)*
G04 Created by KiCad (PCBNEW (5.0.0)) date 04/25/19 11:09:40*
%MOMM*%
%LPD*%
G01*
G04 APERTURE LIST*
%ADD10C,0.120000*%
%ADD11C,0.150000*%
G04 APERTURE END LIST*
D10*
G04 #@! TO.C,J1*
X106630000Y-53230000D02*
X94030000Y-53230000D01*
X94030000Y-53230000D02*
X94030000Y-63580000D01*
X94030000Y-63580000D02*
X94980000Y-63580000D01*
X94980000Y-63580000D02*
X94730000Y-64080000D01*
X94730000Y-64080000D02*
X96630000Y-64080000D01*
X96630000Y-64080000D02*
X96680000Y-64080000D01*
X96680000Y-64080000D02*
X96430000Y-63580000D01*
X96430000Y-63580000D02*
X101830000Y-63580000D01*
X101830000Y-63580000D02*
X101530000Y-64080000D01*
X101530000Y-64080000D02*
X106630000Y-64080000D01*
X106630000Y-64080000D02*
X106630000Y-53230000D01*
G04 #@! TO.C,C1*
X110590000Y-55910000D02*
X110590000Y-60850000D01*
X107850000Y-55910000D02*
X107850000Y-60850000D01*
X110590000Y-55910000D02*
X110275000Y-55910000D01*
X108165000Y-55910000D02*
X107850000Y-55910000D01*
X110590000Y-60850000D02*
X110275000Y-60850000D01*
X108165000Y-60850000D02*
X107850000Y-60850000D01*
G04 #@! TO.C,C2*
X121820000Y-53310000D02*
X121820000Y-48370000D01*
X124560000Y-53310000D02*
X124560000Y-48370000D01*
X121820000Y-53310000D02*
X122135000Y-53310000D01*
X124245000Y-53310000D02*
X124560000Y-53310000D01*
X121820000Y-48370000D02*
X122135000Y-48370000D01*
X124245000Y-48370000D02*
X124560000Y-48370000D01*
G04 #@! TO.C,C3*
X119595000Y-60930000D02*
X119280000Y-60930000D01*
X122020000Y-60930000D02*
X121705000Y-60930000D01*
X119595000Y-55990000D02*
X119280000Y-55990000D01*
X122020000Y-55990000D02*
X121705000Y-55990000D01*
X119280000Y-55990000D02*
X119280000Y-60930000D01*
X122020000Y-55990000D02*
X122020000Y-60930000D01*
G04 #@! TO.C,J2*
X124510000Y-47680000D02*
X124510000Y-58530000D01*
X129610000Y-47680000D02*
X124510000Y-47680000D01*
X129310000Y-48180000D02*
X129610000Y-47680000D01*
X134710000Y-48180000D02*
X129310000Y-48180000D01*
X134460000Y-47680000D02*
X134710000Y-48180000D01*
X134510000Y-47680000D02*
X134460000Y-47680000D01*
X136410000Y-47680000D02*
X134510000Y-47680000D01*
X136160000Y-48180000D02*
X136410000Y-47680000D01*
X137110000Y-48180000D02*
X136160000Y-48180000D01*
X137110000Y-58530000D02*
X137110000Y-48180000D01*
X124510000Y-58530000D02*
X137110000Y-58530000D01*
G04 #@! TO.C,Q1*
X116000000Y-52720000D02*
X116000000Y-48870000D01*
X115990122Y-48831389D02*
G75*
G03X116000000Y-52720000I-1690122J-1948611D01*
G01*
G04 #@! TO.C,R1*
X112110000Y-61610000D02*
X113950000Y-61610000D01*
X113950000Y-61610000D02*
X113950000Y-57770000D01*
X113950000Y-57770000D02*
X112110000Y-57770000D01*
X112110000Y-57770000D02*
X112110000Y-61610000D01*
X113030000Y-62560000D02*
X113030000Y-61610000D01*
X113030000Y-56820000D02*
X113030000Y-57770000D01*
G04 #@! TO.C,R2*
X109220000Y-52400000D02*
X109220000Y-51450000D01*
X109220000Y-46660000D02*
X109220000Y-47610000D01*
X110140000Y-51450000D02*
X110140000Y-47610000D01*
X108300000Y-51450000D02*
X110140000Y-51450000D01*
X108300000Y-47610000D02*
X108300000Y-51450000D01*
X110140000Y-47610000D02*
X108300000Y-47610000D01*
G04 #@! TO.C,R3*
X120300000Y-46340000D02*
X118460000Y-46340000D01*
X118460000Y-46340000D02*
X118460000Y-50180000D01*
X118460000Y-50180000D02*
X120300000Y-50180000D01*
X120300000Y-50180000D02*
X120300000Y-46340000D01*
X119380000Y-45390000D02*
X119380000Y-46340000D01*
X119380000Y-51130000D02*
X119380000Y-50180000D01*
G04 #@! TO.C,R4*
X116840000Y-56820000D02*
X116840000Y-57770000D01*
X116840000Y-62560000D02*
X116840000Y-61610000D01*
X115920000Y-57770000D02*
X115920000Y-61610000D01*
X117760000Y-57770000D02*
X115920000Y-57770000D01*
X117760000Y-61610000D02*
X117760000Y-57770000D01*
X115920000Y-61610000D02*
X117760000Y-61610000D01*
G04 #@! TO.C,J3*
X107900000Y-40530000D02*
X95300000Y-40530000D01*
X95300000Y-40530000D02*
X95300000Y-50880000D01*
X95300000Y-50880000D02*
X96250000Y-50880000D01*
X96250000Y-50880000D02*
X96000000Y-51380000D01*
X96000000Y-51380000D02*
X97900000Y-51380000D01*
X97900000Y-51380000D02*
X97950000Y-51380000D01*
X97950000Y-51380000D02*
X97700000Y-50880000D01*
X97700000Y-50880000D02*
X103100000Y-50880000D01*
X103100000Y-50880000D02*
X102800000Y-51380000D01*
X102800000Y-51380000D02*
X107900000Y-51380000D01*
X107900000Y-51380000D02*
X107900000Y-40530000D01*
G04 #@! TO.C,J1*
D11*
X99782380Y-65103333D02*
X100496666Y-65103333D01*
X100639523Y-65150952D01*
X100734761Y-65246190D01*
X100782380Y-65389047D01*
X100782380Y-65484285D01*
X100782380Y-64103333D02*
X100782380Y-64674761D01*
X100782380Y-64389047D02*
X99782380Y-64389047D01*
X99925238Y-64484285D01*
X100020476Y-64579523D01*
X100068095Y-64674761D01*
G04 #@! TO.C,C1*
X109577142Y-63666666D02*
X109624761Y-63714285D01*
X109672380Y-63857142D01*
X109672380Y-63952380D01*
X109624761Y-64095238D01*
X109529523Y-64190476D01*
X109434285Y-64238095D01*
X109243809Y-64285714D01*
X109100952Y-64285714D01*
X108910476Y-64238095D01*
X108815238Y-64190476D01*
X108720000Y-64095238D01*
X108672380Y-63952380D01*
X108672380Y-63857142D01*
X108720000Y-63714285D01*
X108767619Y-63666666D01*
X109672380Y-62714285D02*
X109672380Y-63285714D01*
X109672380Y-63000000D02*
X108672380Y-63000000D01*
X108815238Y-63095238D01*
X108910476Y-63190476D01*
X108958095Y-63285714D01*
G04 #@! TO.C,C2*
X123547142Y-45886666D02*
X123594761Y-45934285D01*
X123642380Y-46077142D01*
X123642380Y-46172380D01*
X123594761Y-46315238D01*
X123499523Y-46410476D01*
X123404285Y-46458095D01*
X123213809Y-46505714D01*
X123070952Y-46505714D01*
X122880476Y-46458095D01*
X122785238Y-46410476D01*
X122690000Y-46315238D01*
X122642380Y-46172380D01*
X122642380Y-46077142D01*
X122690000Y-45934285D01*
X122737619Y-45886666D01*
X122737619Y-45505714D02*
X122690000Y-45458095D01*
X122642380Y-45362857D01*
X122642380Y-45124761D01*
X122690000Y-45029523D01*
X122737619Y-44981904D01*
X122832857Y-44934285D01*
X122928095Y-44934285D01*
X123070952Y-44981904D01*
X123642380Y-45553333D01*
X123642380Y-44934285D01*
G04 #@! TO.C,C3*
X121007142Y-63666666D02*
X121054761Y-63714285D01*
X121102380Y-63857142D01*
X121102380Y-63952380D01*
X121054761Y-64095238D01*
X120959523Y-64190476D01*
X120864285Y-64238095D01*
X120673809Y-64285714D01*
X120530952Y-64285714D01*
X120340476Y-64238095D01*
X120245238Y-64190476D01*
X120150000Y-64095238D01*
X120102380Y-63952380D01*
X120102380Y-63857142D01*
X120150000Y-63714285D01*
X120197619Y-63666666D01*
X120102380Y-63333333D02*
X120102380Y-62714285D01*
X120483333Y-63047619D01*
X120483333Y-62904761D01*
X120530952Y-62809523D01*
X120578571Y-62761904D01*
X120673809Y-62714285D01*
X120911904Y-62714285D01*
X121007142Y-62761904D01*
X121054761Y-62809523D01*
X121102380Y-62904761D01*
X121102380Y-63190476D01*
X121054761Y-63285714D01*
X121007142Y-63333333D01*
G04 #@! TO.C,J2*
X130262380Y-46053333D02*
X130976666Y-46053333D01*
X131119523Y-46100952D01*
X131214761Y-46196190D01*
X131262380Y-46339047D01*
X131262380Y-46434285D01*
X130357619Y-45624761D02*
X130310000Y-45577142D01*
X130262380Y-45481904D01*
X130262380Y-45243809D01*
X130310000Y-45148571D01*
X130357619Y-45100952D01*
X130452857Y-45053333D01*
X130548095Y-45053333D01*
X130690952Y-45100952D01*
X131262380Y-45672380D01*
X131262380Y-45053333D01*
G04 #@! TO.C,Q1*
X114847619Y-47085238D02*
X114800000Y-47180476D01*
X114704761Y-47275714D01*
X114561904Y-47418571D01*
X114514285Y-47513809D01*
X114514285Y-47609047D01*
X114752380Y-47561428D02*
X114704761Y-47656666D01*
X114609523Y-47751904D01*
X114419047Y-47799523D01*
X114085714Y-47799523D01*
X113895238Y-47751904D01*
X113800000Y-47656666D01*
X113752380Y-47561428D01*
X113752380Y-47370952D01*
X113800000Y-47275714D01*
X113895238Y-47180476D01*
X114085714Y-47132857D01*
X114419047Y-47132857D01*
X114609523Y-47180476D01*
X114704761Y-47275714D01*
X114752380Y-47370952D01*
X114752380Y-47561428D01*
X114752380Y-46180476D02*
X114752380Y-46751904D01*
X114752380Y-46466190D02*
X113752380Y-46466190D01*
X113895238Y-46561428D01*
X113990476Y-46656666D01*
X114038095Y-46751904D01*
G04 #@! TO.C,R1*
X113482380Y-66206666D02*
X113006190Y-66540000D01*
X113482380Y-66778095D02*
X112482380Y-66778095D01*
X112482380Y-66397142D01*
X112530000Y-66301904D01*
X112577619Y-66254285D01*
X112672857Y-66206666D01*
X112815714Y-66206666D01*
X112910952Y-66254285D01*
X112958571Y-66301904D01*
X113006190Y-66397142D01*
X113006190Y-66778095D01*
X113482380Y-65254285D02*
X113482380Y-65825714D01*
X113482380Y-65540000D02*
X112482380Y-65540000D01*
X112625238Y-65635238D01*
X112720476Y-65730476D01*
X112768095Y-65825714D01*
G04 #@! TO.C,R2*
X109672380Y-43346666D02*
X109196190Y-43680000D01*
X109672380Y-43918095D02*
X108672380Y-43918095D01*
X108672380Y-43537142D01*
X108720000Y-43441904D01*
X108767619Y-43394285D01*
X108862857Y-43346666D01*
X109005714Y-43346666D01*
X109100952Y-43394285D01*
X109148571Y-43441904D01*
X109196190Y-43537142D01*
X109196190Y-43918095D01*
X108767619Y-42965714D02*
X108720000Y-42918095D01*
X108672380Y-42822857D01*
X108672380Y-42584761D01*
X108720000Y-42489523D01*
X108767619Y-42441904D01*
X108862857Y-42394285D01*
X108958095Y-42394285D01*
X109100952Y-42441904D01*
X109672380Y-43013333D01*
X109672380Y-42394285D01*
G04 #@! TO.C,R3*
X119832380Y-42076666D02*
X119356190Y-42410000D01*
X119832380Y-42648095D02*
X118832380Y-42648095D01*
X118832380Y-42267142D01*
X118880000Y-42171904D01*
X118927619Y-42124285D01*
X119022857Y-42076666D01*
X119165714Y-42076666D01*
X119260952Y-42124285D01*
X119308571Y-42171904D01*
X119356190Y-42267142D01*
X119356190Y-42648095D01*
X118832380Y-41743333D02*
X118832380Y-41124285D01*
X119213333Y-41457619D01*
X119213333Y-41314761D01*
X119260952Y-41219523D01*
X119308571Y-41171904D01*
X119403809Y-41124285D01*
X119641904Y-41124285D01*
X119737142Y-41171904D01*
X119784761Y-41219523D01*
X119832380Y-41314761D01*
X119832380Y-41600476D01*
X119784761Y-41695714D01*
X119737142Y-41743333D01*
G04 #@! TO.C,R4*
X117292380Y-66206666D02*
X116816190Y-66540000D01*
X117292380Y-66778095D02*
X116292380Y-66778095D01*
X116292380Y-66397142D01*
X116340000Y-66301904D01*
X116387619Y-66254285D01*
X116482857Y-66206666D01*
X116625714Y-66206666D01*
X116720952Y-66254285D01*
X116768571Y-66301904D01*
X116816190Y-66397142D01*
X116816190Y-66778095D01*
X116625714Y-65349523D02*
X117292380Y-65349523D01*
X116244761Y-65587619D02*
X116959047Y-65825714D01*
X116959047Y-65206666D01*
G04 #@! TO.C,J3*
X108042380Y-41593333D02*
X108756666Y-41593333D01*
X108899523Y-41640952D01*
X108994761Y-41736190D01*
X109042380Y-41879047D01*
X109042380Y-41974285D01*
X108042380Y-41212380D02*
X108042380Y-40593333D01*
X108423333Y-40926666D01*
X108423333Y-40783809D01*
X108470952Y-40688571D01*
X108518571Y-40640952D01*
X108613809Y-40593333D01*
X108851904Y-40593333D01*
X108947142Y-40640952D01*
X108994761Y-40688571D01*
X109042380Y-40783809D01*
X109042380Y-41069523D01*
X108994761Y-41164761D01*
X108947142Y-41212380D01*
G04 #@! TD*
M02*
