%FSLAX45Y45*%
G04 Gerber Fmt 4.5, Leading zero omitted, Abs format (unit mm)*
G04 Created by KiCad (PCBNEW (5.0.0)) date 05/04/19 10:54:32*
%MOMM*%
%LPD*%
G01*
G04 APERTURE LIST*
%ADD10C,0.200000*%
%ADD11C,0.150000*%
%ADD12C,0.300000*%
G04 APERTURE END LIST*
D10*
X9398000Y-6985000D02*
X13843000Y-6985000D01*
D11*
X9398000Y-3937000D02*
X13843000Y-3937000D01*
D10*
X13843000Y-6985000D02*
X13843000Y-3937000D01*
X9398000Y-3937000D02*
X9398000Y-6985000D01*
D10*
X10887000Y-4537000D02*
X10957000Y-4607000D01*
X10957000Y-4537000D02*
X10887000Y-4607000D01*
X11649000Y-5553000D02*
X11719000Y-5623000D01*
X11719000Y-5553000D02*
X11649000Y-5623000D01*
X11649000Y-6315000D02*
X11719000Y-6385000D01*
X11719000Y-6315000D02*
X11649000Y-6385000D01*
X11903000Y-4410000D02*
X11973000Y-4480000D01*
X11973000Y-4410000D02*
X11903000Y-4480000D01*
X11903000Y-5172000D02*
X11973000Y-5242000D01*
X11973000Y-5172000D02*
X11903000Y-5242000D01*
X10887000Y-5299000D02*
X10957000Y-5369000D01*
X10957000Y-5299000D02*
X10887000Y-5369000D01*
X11268000Y-5553000D02*
X11338000Y-5623000D01*
X11338000Y-5553000D02*
X11268000Y-5623000D01*
X11268000Y-6315000D02*
X11338000Y-6385000D01*
X11338000Y-6315000D02*
X11268000Y-6385000D01*
X11340500Y-5079000D02*
G75*
G03X11340500Y-5079000I-37500J0D01*
G01*
X11467500Y-4953000D02*
G75*
G03X11467500Y-4953000I-37500J0D01*
G01*
X11467500Y-5207000D02*
G75*
G03X11467500Y-5207000I-37500J0D01*
G01*
X12319000Y-4794000D02*
X12319000Y-4874000D01*
X12279000Y-4834000D02*
X12359000Y-4834000D01*
X12319000Y-5294000D02*
X12319000Y-5374000D01*
X12279000Y-5334000D02*
X12359000Y-5334000D01*
X12065000Y-5556000D02*
X12065000Y-5636000D01*
X12025000Y-5596000D02*
X12105000Y-5596000D01*
X12065000Y-6056000D02*
X12065000Y-6136000D01*
X12025000Y-6096000D02*
X12105000Y-6096000D01*
X10922000Y-5548000D02*
X10922000Y-5628000D01*
X10882000Y-5588000D02*
X10962000Y-5588000D01*
X10922000Y-6048000D02*
X10922000Y-6128000D01*
X10882000Y-6088000D02*
X10962000Y-6088000D01*
X13127669Y-5134670D02*
X13127669Y-5041331D01*
X13034330Y-5041331D01*
X13034330Y-5134670D01*
X13127669Y-5134670D01*
X13127669Y-5634669D02*
X13127669Y-5541331D01*
X13034330Y-5541331D01*
X13034330Y-5634669D01*
X13127669Y-5634669D01*
X10206670Y-4364670D02*
X10206670Y-4271331D01*
X10113331Y-4271331D01*
X10113331Y-4364670D01*
X10206670Y-4364670D01*
X10206670Y-4864670D02*
X10206670Y-4771331D01*
X10113331Y-4771331D01*
X10113331Y-4864670D01*
X10206670Y-4864670D01*
X10079670Y-5634669D02*
X10079670Y-5541331D01*
X9986331Y-5541331D01*
X9986331Y-5634669D01*
X10079670Y-5634669D01*
X10079670Y-6134669D02*
X10079670Y-6041330D01*
X9986331Y-6041330D01*
X9986331Y-6134669D01*
X10079670Y-6134669D01*
D12*
X9674428Y-7460714D02*
X9674428Y-7160714D01*
X9745857Y-7160714D01*
X9788714Y-7175000D01*
X9817286Y-7203571D01*
X9831571Y-7232143D01*
X9845857Y-7289286D01*
X9845857Y-7332143D01*
X9831571Y-7389286D01*
X9817286Y-7417857D01*
X9788714Y-7446429D01*
X9745857Y-7460714D01*
X9674428Y-7460714D01*
X9974428Y-7460714D02*
X9974428Y-7260714D01*
X9974428Y-7317857D02*
X9988714Y-7289286D01*
X10003000Y-7275000D01*
X10031571Y-7260714D01*
X10060143Y-7260714D01*
X10160143Y-7460714D02*
X10160143Y-7260714D01*
X10160143Y-7160714D02*
X10145857Y-7175000D01*
X10160143Y-7189286D01*
X10174428Y-7175000D01*
X10160143Y-7160714D01*
X10160143Y-7189286D01*
X10345857Y-7460714D02*
X10317286Y-7446429D01*
X10303000Y-7417857D01*
X10303000Y-7160714D01*
X10503000Y-7460714D02*
X10474428Y-7446429D01*
X10460143Y-7417857D01*
X10460143Y-7160714D01*
X10845857Y-7460714D02*
X10845857Y-7160714D01*
X10945857Y-7375000D01*
X11045857Y-7160714D01*
X11045857Y-7460714D01*
X11317286Y-7460714D02*
X11317286Y-7303571D01*
X11303000Y-7275000D01*
X11274428Y-7260714D01*
X11217286Y-7260714D01*
X11188714Y-7275000D01*
X11317286Y-7446429D02*
X11288714Y-7460714D01*
X11217286Y-7460714D01*
X11188714Y-7446429D01*
X11174428Y-7417857D01*
X11174428Y-7389286D01*
X11188714Y-7360714D01*
X11217286Y-7346429D01*
X11288714Y-7346429D01*
X11317286Y-7332143D01*
X11460143Y-7260714D02*
X11460143Y-7560714D01*
X11460143Y-7275000D02*
X11488714Y-7260714D01*
X11545857Y-7260714D01*
X11574428Y-7275000D01*
X11588714Y-7289286D01*
X11603000Y-7317857D01*
X11603000Y-7403571D01*
X11588714Y-7432143D01*
X11574428Y-7446429D01*
X11545857Y-7460714D01*
X11488714Y-7460714D01*
X11460143Y-7446429D01*
X11731571Y-7432143D02*
X11745857Y-7446429D01*
X11731571Y-7460714D01*
X11717286Y-7446429D01*
X11731571Y-7432143D01*
X11731571Y-7460714D01*
X11731571Y-7275000D02*
X11745857Y-7289286D01*
X11731571Y-7303571D01*
X11717286Y-7289286D01*
X11731571Y-7275000D01*
X11731571Y-7303571D01*
X9318000Y-7920000D02*
X9388000Y-7990000D01*
X9388000Y-7920000D02*
X9318000Y-7990000D01*
X9731571Y-7790714D02*
X9760143Y-7790714D01*
X9788714Y-7805000D01*
X9803000Y-7819286D01*
X9817286Y-7847857D01*
X9831571Y-7905000D01*
X9831571Y-7976429D01*
X9817286Y-8033571D01*
X9803000Y-8062143D01*
X9788714Y-8076429D01*
X9760143Y-8090714D01*
X9731571Y-8090714D01*
X9703000Y-8076429D01*
X9688714Y-8062143D01*
X9674428Y-8033571D01*
X9660143Y-7976429D01*
X9660143Y-7905000D01*
X9674428Y-7847857D01*
X9688714Y-7819286D01*
X9703000Y-7805000D01*
X9731571Y-7790714D01*
X9960143Y-8062143D02*
X9974428Y-8076429D01*
X9960143Y-8090714D01*
X9945857Y-8076429D01*
X9960143Y-8062143D01*
X9960143Y-8090714D01*
X10074428Y-7790714D02*
X10274428Y-7790714D01*
X10145857Y-8090714D01*
X10445857Y-7790714D02*
X10474428Y-7790714D01*
X10503000Y-7805000D01*
X10517286Y-7819286D01*
X10531571Y-7847857D01*
X10545857Y-7905000D01*
X10545857Y-7976429D01*
X10531571Y-8033571D01*
X10517286Y-8062143D01*
X10503000Y-8076429D01*
X10474428Y-8090714D01*
X10445857Y-8090714D01*
X10417286Y-8076429D01*
X10403000Y-8062143D01*
X10388714Y-8033571D01*
X10374428Y-7976429D01*
X10374428Y-7905000D01*
X10388714Y-7847857D01*
X10403000Y-7819286D01*
X10417286Y-7805000D01*
X10445857Y-7790714D01*
X10674428Y-8090714D02*
X10674428Y-7890714D01*
X10674428Y-7919286D02*
X10688714Y-7905000D01*
X10717286Y-7890714D01*
X10760143Y-7890714D01*
X10788714Y-7905000D01*
X10803000Y-7933571D01*
X10803000Y-8090714D01*
X10803000Y-7933571D02*
X10817286Y-7905000D01*
X10845857Y-7890714D01*
X10888714Y-7890714D01*
X10917286Y-7905000D01*
X10931571Y-7933571D01*
X10931571Y-8090714D01*
X11074428Y-8090714D02*
X11074428Y-7890714D01*
X11074428Y-7919286D02*
X11088714Y-7905000D01*
X11117286Y-7890714D01*
X11160143Y-7890714D01*
X11188714Y-7905000D01*
X11203000Y-7933571D01*
X11203000Y-8090714D01*
X11203000Y-7933571D02*
X11217286Y-7905000D01*
X11245857Y-7890714D01*
X11288714Y-7890714D01*
X11317286Y-7905000D01*
X11331571Y-7933571D01*
X11331571Y-8090714D01*
X11917286Y-7776429D02*
X11660143Y-8162143D01*
X12303000Y-7790714D02*
X12331571Y-7790714D01*
X12360143Y-7805000D01*
X12374428Y-7819286D01*
X12388714Y-7847857D01*
X12403000Y-7905000D01*
X12403000Y-7976429D01*
X12388714Y-8033571D01*
X12374428Y-8062143D01*
X12360143Y-8076429D01*
X12331571Y-8090714D01*
X12303000Y-8090714D01*
X12274428Y-8076429D01*
X12260143Y-8062143D01*
X12245857Y-8033571D01*
X12231571Y-7976429D01*
X12231571Y-7905000D01*
X12245857Y-7847857D01*
X12260143Y-7819286D01*
X12274428Y-7805000D01*
X12303000Y-7790714D01*
X12531571Y-8062143D02*
X12545857Y-8076429D01*
X12531571Y-8090714D01*
X12517286Y-8076429D01*
X12531571Y-8062143D01*
X12531571Y-8090714D01*
X12731571Y-7790714D02*
X12760143Y-7790714D01*
X12788714Y-7805000D01*
X12803000Y-7819286D01*
X12817286Y-7847857D01*
X12831571Y-7905000D01*
X12831571Y-7976429D01*
X12817286Y-8033571D01*
X12803000Y-8062143D01*
X12788714Y-8076429D01*
X12760143Y-8090714D01*
X12731571Y-8090714D01*
X12703000Y-8076429D01*
X12688714Y-8062143D01*
X12674428Y-8033571D01*
X12660143Y-7976429D01*
X12660143Y-7905000D01*
X12674428Y-7847857D01*
X12688714Y-7819286D01*
X12703000Y-7805000D01*
X12731571Y-7790714D01*
X12945857Y-7819286D02*
X12960143Y-7805000D01*
X12988714Y-7790714D01*
X13060143Y-7790714D01*
X13088714Y-7805000D01*
X13103000Y-7819286D01*
X13117286Y-7847857D01*
X13117286Y-7876429D01*
X13103000Y-7919286D01*
X12931571Y-8090714D01*
X13117286Y-8090714D01*
X13288714Y-7919286D02*
X13260143Y-7905000D01*
X13245857Y-7890714D01*
X13231571Y-7862143D01*
X13231571Y-7847857D01*
X13245857Y-7819286D01*
X13260143Y-7805000D01*
X13288714Y-7790714D01*
X13345857Y-7790714D01*
X13374428Y-7805000D01*
X13388714Y-7819286D01*
X13403000Y-7847857D01*
X13403000Y-7862143D01*
X13388714Y-7890714D01*
X13374428Y-7905000D01*
X13345857Y-7919286D01*
X13288714Y-7919286D01*
X13260143Y-7933571D01*
X13245857Y-7947857D01*
X13231571Y-7976429D01*
X13231571Y-8033571D01*
X13245857Y-8062143D01*
X13260143Y-8076429D01*
X13288714Y-8090714D01*
X13345857Y-8090714D01*
X13374428Y-8076429D01*
X13388714Y-8062143D01*
X13403000Y-8033571D01*
X13403000Y-7976429D01*
X13388714Y-7947857D01*
X13374428Y-7933571D01*
X13345857Y-7919286D01*
X13517286Y-7790714D02*
X13517286Y-7847857D01*
X13631571Y-7790714D02*
X13631571Y-7847857D01*
X14074428Y-8205000D02*
X14060143Y-8190714D01*
X14031571Y-8147857D01*
X14017286Y-8119286D01*
X14003000Y-8076429D01*
X13988714Y-8005000D01*
X13988714Y-7947857D01*
X14003000Y-7876429D01*
X14017286Y-7833571D01*
X14031571Y-7805000D01*
X14060143Y-7762143D01*
X14074428Y-7747857D01*
X14231571Y-7919286D02*
X14203000Y-7905000D01*
X14188714Y-7890714D01*
X14174428Y-7862143D01*
X14174428Y-7847857D01*
X14188714Y-7819286D01*
X14203000Y-7805000D01*
X14231571Y-7790714D01*
X14288714Y-7790714D01*
X14317286Y-7805000D01*
X14331571Y-7819286D01*
X14345857Y-7847857D01*
X14345857Y-7862143D01*
X14331571Y-7890714D01*
X14317286Y-7905000D01*
X14288714Y-7919286D01*
X14231571Y-7919286D01*
X14203000Y-7933571D01*
X14188714Y-7947857D01*
X14174428Y-7976429D01*
X14174428Y-8033571D01*
X14188714Y-8062143D01*
X14203000Y-8076429D01*
X14231571Y-8090714D01*
X14288714Y-8090714D01*
X14317286Y-8076429D01*
X14331571Y-8062143D01*
X14345857Y-8033571D01*
X14345857Y-7976429D01*
X14331571Y-7947857D01*
X14317286Y-7933571D01*
X14288714Y-7919286D01*
X14703000Y-8090714D02*
X14703000Y-7790714D01*
X14831571Y-8090714D02*
X14831571Y-7933571D01*
X14817286Y-7905000D01*
X14788714Y-7890714D01*
X14745857Y-7890714D01*
X14717286Y-7905000D01*
X14703000Y-7919286D01*
X15017286Y-8090714D02*
X14988714Y-8076429D01*
X14974428Y-8062143D01*
X14960143Y-8033571D01*
X14960143Y-7947857D01*
X14974428Y-7919286D01*
X14988714Y-7905000D01*
X15017286Y-7890714D01*
X15060143Y-7890714D01*
X15088714Y-7905000D01*
X15103000Y-7919286D01*
X15117286Y-7947857D01*
X15117286Y-8033571D01*
X15103000Y-8062143D01*
X15088714Y-8076429D01*
X15060143Y-8090714D01*
X15017286Y-8090714D01*
X15288714Y-8090714D02*
X15260143Y-8076429D01*
X15245857Y-8047857D01*
X15245857Y-7790714D01*
X15517286Y-8076429D02*
X15488714Y-8090714D01*
X15431571Y-8090714D01*
X15403000Y-8076429D01*
X15388714Y-8047857D01*
X15388714Y-7933571D01*
X15403000Y-7905000D01*
X15431571Y-7890714D01*
X15488714Y-7890714D01*
X15517286Y-7905000D01*
X15531571Y-7933571D01*
X15531571Y-7962143D01*
X15388714Y-7990714D01*
X15645857Y-8076429D02*
X15674428Y-8090714D01*
X15731571Y-8090714D01*
X15760143Y-8076429D01*
X15774428Y-8047857D01*
X15774428Y-8033571D01*
X15760143Y-8005000D01*
X15731571Y-7990714D01*
X15688714Y-7990714D01*
X15660143Y-7976429D01*
X15645857Y-7947857D01*
X15645857Y-7933571D01*
X15660143Y-7905000D01*
X15688714Y-7890714D01*
X15731571Y-7890714D01*
X15760143Y-7905000D01*
X15874428Y-8205000D02*
X15888714Y-8190714D01*
X15917286Y-8147857D01*
X15931571Y-8119286D01*
X15945857Y-8076429D01*
X15960143Y-8005000D01*
X15960143Y-7947857D01*
X15945857Y-7876429D01*
X15931571Y-7833571D01*
X15917286Y-7805000D01*
X15888714Y-7762143D01*
X15874428Y-7747857D01*
X9388000Y-8351000D02*
G75*
G03X9388000Y-8351000I-37500J0D01*
G01*
X9731571Y-8186714D02*
X9760143Y-8186714D01*
X9788714Y-8201000D01*
X9803000Y-8215286D01*
X9817286Y-8243857D01*
X9831571Y-8301000D01*
X9831571Y-8372429D01*
X9817286Y-8429572D01*
X9803000Y-8458143D01*
X9788714Y-8472429D01*
X9760143Y-8486714D01*
X9731571Y-8486714D01*
X9703000Y-8472429D01*
X9688714Y-8458143D01*
X9674428Y-8429572D01*
X9660143Y-8372429D01*
X9660143Y-8301000D01*
X9674428Y-8243857D01*
X9688714Y-8215286D01*
X9703000Y-8201000D01*
X9731571Y-8186714D01*
X9960143Y-8458143D02*
X9974428Y-8472429D01*
X9960143Y-8486714D01*
X9945857Y-8472429D01*
X9960143Y-8458143D01*
X9960143Y-8486714D01*
X10074428Y-8186714D02*
X10274428Y-8186714D01*
X10145857Y-8486714D01*
X10531571Y-8186714D02*
X10388714Y-8186714D01*
X10374428Y-8329571D01*
X10388714Y-8315286D01*
X10417286Y-8301000D01*
X10488714Y-8301000D01*
X10517286Y-8315286D01*
X10531571Y-8329571D01*
X10545857Y-8358143D01*
X10545857Y-8429572D01*
X10531571Y-8458143D01*
X10517286Y-8472429D01*
X10488714Y-8486714D01*
X10417286Y-8486714D01*
X10388714Y-8472429D01*
X10374428Y-8458143D01*
X10674428Y-8486714D02*
X10674428Y-8286714D01*
X10674428Y-8315286D02*
X10688714Y-8301000D01*
X10717286Y-8286714D01*
X10760143Y-8286714D01*
X10788714Y-8301000D01*
X10803000Y-8329571D01*
X10803000Y-8486714D01*
X10803000Y-8329571D02*
X10817286Y-8301000D01*
X10845857Y-8286714D01*
X10888714Y-8286714D01*
X10917286Y-8301000D01*
X10931571Y-8329571D01*
X10931571Y-8486714D01*
X11074428Y-8486714D02*
X11074428Y-8286714D01*
X11074428Y-8315286D02*
X11088714Y-8301000D01*
X11117286Y-8286714D01*
X11160143Y-8286714D01*
X11188714Y-8301000D01*
X11203000Y-8329571D01*
X11203000Y-8486714D01*
X11203000Y-8329571D02*
X11217286Y-8301000D01*
X11245857Y-8286714D01*
X11288714Y-8286714D01*
X11317286Y-8301000D01*
X11331571Y-8329571D01*
X11331571Y-8486714D01*
X11917286Y-8172429D02*
X11660143Y-8558143D01*
X12303000Y-8186714D02*
X12331571Y-8186714D01*
X12360143Y-8201000D01*
X12374428Y-8215286D01*
X12388714Y-8243857D01*
X12403000Y-8301000D01*
X12403000Y-8372429D01*
X12388714Y-8429572D01*
X12374428Y-8458143D01*
X12360143Y-8472429D01*
X12331571Y-8486714D01*
X12303000Y-8486714D01*
X12274428Y-8472429D01*
X12260143Y-8458143D01*
X12245857Y-8429572D01*
X12231571Y-8372429D01*
X12231571Y-8301000D01*
X12245857Y-8243857D01*
X12260143Y-8215286D01*
X12274428Y-8201000D01*
X12303000Y-8186714D01*
X12531571Y-8458143D02*
X12545857Y-8472429D01*
X12531571Y-8486714D01*
X12517286Y-8472429D01*
X12531571Y-8458143D01*
X12531571Y-8486714D01*
X12731571Y-8186714D02*
X12760143Y-8186714D01*
X12788714Y-8201000D01*
X12803000Y-8215286D01*
X12817286Y-8243857D01*
X12831571Y-8301000D01*
X12831571Y-8372429D01*
X12817286Y-8429572D01*
X12803000Y-8458143D01*
X12788714Y-8472429D01*
X12760143Y-8486714D01*
X12731571Y-8486714D01*
X12703000Y-8472429D01*
X12688714Y-8458143D01*
X12674428Y-8429572D01*
X12660143Y-8372429D01*
X12660143Y-8301000D01*
X12674428Y-8243857D01*
X12688714Y-8215286D01*
X12703000Y-8201000D01*
X12731571Y-8186714D01*
X12931571Y-8186714D02*
X13117286Y-8186714D01*
X13017286Y-8301000D01*
X13060143Y-8301000D01*
X13088714Y-8315286D01*
X13103000Y-8329571D01*
X13117286Y-8358143D01*
X13117286Y-8429572D01*
X13103000Y-8458143D01*
X13088714Y-8472429D01*
X13060143Y-8486714D01*
X12974428Y-8486714D01*
X12945857Y-8472429D01*
X12931571Y-8458143D01*
X13303000Y-8186714D02*
X13331571Y-8186714D01*
X13360143Y-8201000D01*
X13374428Y-8215286D01*
X13388714Y-8243857D01*
X13403000Y-8301000D01*
X13403000Y-8372429D01*
X13388714Y-8429572D01*
X13374428Y-8458143D01*
X13360143Y-8472429D01*
X13331571Y-8486714D01*
X13303000Y-8486714D01*
X13274428Y-8472429D01*
X13260143Y-8458143D01*
X13245857Y-8429572D01*
X13231571Y-8372429D01*
X13231571Y-8301000D01*
X13245857Y-8243857D01*
X13260143Y-8215286D01*
X13274428Y-8201000D01*
X13303000Y-8186714D01*
X13517286Y-8186714D02*
X13517286Y-8243857D01*
X13631571Y-8186714D02*
X13631571Y-8243857D01*
X14074428Y-8601000D02*
X14060143Y-8586714D01*
X14031571Y-8543857D01*
X14017286Y-8515286D01*
X14003000Y-8472429D01*
X13988714Y-8401000D01*
X13988714Y-8343857D01*
X14003000Y-8272429D01*
X14017286Y-8229571D01*
X14031571Y-8201000D01*
X14060143Y-8158143D01*
X14074428Y-8143857D01*
X14160143Y-8186714D02*
X14345857Y-8186714D01*
X14245857Y-8301000D01*
X14288714Y-8301000D01*
X14317286Y-8315286D01*
X14331571Y-8329571D01*
X14345857Y-8358143D01*
X14345857Y-8429572D01*
X14331571Y-8458143D01*
X14317286Y-8472429D01*
X14288714Y-8486714D01*
X14203000Y-8486714D01*
X14174428Y-8472429D01*
X14160143Y-8458143D01*
X14703000Y-8486714D02*
X14703000Y-8186714D01*
X14831571Y-8486714D02*
X14831571Y-8329571D01*
X14817286Y-8301000D01*
X14788714Y-8286714D01*
X14745857Y-8286714D01*
X14717286Y-8301000D01*
X14703000Y-8315286D01*
X15017286Y-8486714D02*
X14988714Y-8472429D01*
X14974428Y-8458143D01*
X14960143Y-8429572D01*
X14960143Y-8343857D01*
X14974428Y-8315286D01*
X14988714Y-8301000D01*
X15017286Y-8286714D01*
X15060143Y-8286714D01*
X15088714Y-8301000D01*
X15103000Y-8315286D01*
X15117286Y-8343857D01*
X15117286Y-8429572D01*
X15103000Y-8458143D01*
X15088714Y-8472429D01*
X15060143Y-8486714D01*
X15017286Y-8486714D01*
X15288714Y-8486714D02*
X15260143Y-8472429D01*
X15245857Y-8443857D01*
X15245857Y-8186714D01*
X15517286Y-8472429D02*
X15488714Y-8486714D01*
X15431571Y-8486714D01*
X15403000Y-8472429D01*
X15388714Y-8443857D01*
X15388714Y-8329571D01*
X15403000Y-8301000D01*
X15431571Y-8286714D01*
X15488714Y-8286714D01*
X15517286Y-8301000D01*
X15531571Y-8329571D01*
X15531571Y-8358143D01*
X15388714Y-8386714D01*
X15645857Y-8472429D02*
X15674428Y-8486714D01*
X15731571Y-8486714D01*
X15760143Y-8472429D01*
X15774428Y-8443857D01*
X15774428Y-8429572D01*
X15760143Y-8401000D01*
X15731571Y-8386714D01*
X15688714Y-8386714D01*
X15660143Y-8372429D01*
X15645857Y-8343857D01*
X15645857Y-8329571D01*
X15660143Y-8301000D01*
X15688714Y-8286714D01*
X15731571Y-8286714D01*
X15760143Y-8301000D01*
X15874428Y-8601000D02*
X15888714Y-8586714D01*
X15917286Y-8543857D01*
X15931571Y-8515286D01*
X15945857Y-8472429D01*
X15960143Y-8401000D01*
X15960143Y-8343857D01*
X15945857Y-8272429D01*
X15931571Y-8229571D01*
X15917286Y-8201000D01*
X15888714Y-8158143D01*
X15874428Y-8143857D01*
X9348000Y-8707000D02*
X9348000Y-8787000D01*
X9308000Y-8747000D02*
X9388000Y-8747000D01*
X9731571Y-8582714D02*
X9760143Y-8582714D01*
X9788714Y-8597000D01*
X9803000Y-8611286D01*
X9817286Y-8639857D01*
X9831571Y-8697000D01*
X9831571Y-8768429D01*
X9817286Y-8825572D01*
X9803000Y-8854143D01*
X9788714Y-8868429D01*
X9760143Y-8882714D01*
X9731571Y-8882714D01*
X9703000Y-8868429D01*
X9688714Y-8854143D01*
X9674428Y-8825572D01*
X9660143Y-8768429D01*
X9660143Y-8697000D01*
X9674428Y-8639857D01*
X9688714Y-8611286D01*
X9703000Y-8597000D01*
X9731571Y-8582714D01*
X9960143Y-8854143D02*
X9974428Y-8868429D01*
X9960143Y-8882714D01*
X9945857Y-8868429D01*
X9960143Y-8854143D01*
X9960143Y-8882714D01*
X10145857Y-8711286D02*
X10117286Y-8697000D01*
X10103000Y-8682714D01*
X10088714Y-8654143D01*
X10088714Y-8639857D01*
X10103000Y-8611286D01*
X10117286Y-8597000D01*
X10145857Y-8582714D01*
X10203000Y-8582714D01*
X10231571Y-8597000D01*
X10245857Y-8611286D01*
X10260143Y-8639857D01*
X10260143Y-8654143D01*
X10245857Y-8682714D01*
X10231571Y-8697000D01*
X10203000Y-8711286D01*
X10145857Y-8711286D01*
X10117286Y-8725572D01*
X10103000Y-8739857D01*
X10088714Y-8768429D01*
X10088714Y-8825572D01*
X10103000Y-8854143D01*
X10117286Y-8868429D01*
X10145857Y-8882714D01*
X10203000Y-8882714D01*
X10231571Y-8868429D01*
X10245857Y-8854143D01*
X10260143Y-8825572D01*
X10260143Y-8768429D01*
X10245857Y-8739857D01*
X10231571Y-8725572D01*
X10203000Y-8711286D01*
X10445857Y-8582714D02*
X10474428Y-8582714D01*
X10503000Y-8597000D01*
X10517286Y-8611286D01*
X10531571Y-8639857D01*
X10545857Y-8697000D01*
X10545857Y-8768429D01*
X10531571Y-8825572D01*
X10517286Y-8854143D01*
X10503000Y-8868429D01*
X10474428Y-8882714D01*
X10445857Y-8882714D01*
X10417286Y-8868429D01*
X10403000Y-8854143D01*
X10388714Y-8825572D01*
X10374428Y-8768429D01*
X10374428Y-8697000D01*
X10388714Y-8639857D01*
X10403000Y-8611286D01*
X10417286Y-8597000D01*
X10445857Y-8582714D01*
X10674428Y-8882714D02*
X10674428Y-8682714D01*
X10674428Y-8711286D02*
X10688714Y-8697000D01*
X10717286Y-8682714D01*
X10760143Y-8682714D01*
X10788714Y-8697000D01*
X10803000Y-8725572D01*
X10803000Y-8882714D01*
X10803000Y-8725572D02*
X10817286Y-8697000D01*
X10845857Y-8682714D01*
X10888714Y-8682714D01*
X10917286Y-8697000D01*
X10931571Y-8725572D01*
X10931571Y-8882714D01*
X11074428Y-8882714D02*
X11074428Y-8682714D01*
X11074428Y-8711286D02*
X11088714Y-8697000D01*
X11117286Y-8682714D01*
X11160143Y-8682714D01*
X11188714Y-8697000D01*
X11203000Y-8725572D01*
X11203000Y-8882714D01*
X11203000Y-8725572D02*
X11217286Y-8697000D01*
X11245857Y-8682714D01*
X11288714Y-8682714D01*
X11317286Y-8697000D01*
X11331571Y-8725572D01*
X11331571Y-8882714D01*
X11917286Y-8568429D02*
X11660143Y-8954143D01*
X12303000Y-8582714D02*
X12331571Y-8582714D01*
X12360143Y-8597000D01*
X12374428Y-8611286D01*
X12388714Y-8639857D01*
X12403000Y-8697000D01*
X12403000Y-8768429D01*
X12388714Y-8825572D01*
X12374428Y-8854143D01*
X12360143Y-8868429D01*
X12331571Y-8882714D01*
X12303000Y-8882714D01*
X12274428Y-8868429D01*
X12260143Y-8854143D01*
X12245857Y-8825572D01*
X12231571Y-8768429D01*
X12231571Y-8697000D01*
X12245857Y-8639857D01*
X12260143Y-8611286D01*
X12274428Y-8597000D01*
X12303000Y-8582714D01*
X12531571Y-8854143D02*
X12545857Y-8868429D01*
X12531571Y-8882714D01*
X12517286Y-8868429D01*
X12531571Y-8854143D01*
X12531571Y-8882714D01*
X12731571Y-8582714D02*
X12760143Y-8582714D01*
X12788714Y-8597000D01*
X12803000Y-8611286D01*
X12817286Y-8639857D01*
X12831571Y-8697000D01*
X12831571Y-8768429D01*
X12817286Y-8825572D01*
X12803000Y-8854143D01*
X12788714Y-8868429D01*
X12760143Y-8882714D01*
X12731571Y-8882714D01*
X12703000Y-8868429D01*
X12688714Y-8854143D01*
X12674428Y-8825572D01*
X12660143Y-8768429D01*
X12660143Y-8697000D01*
X12674428Y-8639857D01*
X12688714Y-8611286D01*
X12703000Y-8597000D01*
X12731571Y-8582714D01*
X12931571Y-8582714D02*
X13117286Y-8582714D01*
X13017286Y-8697000D01*
X13060143Y-8697000D01*
X13088714Y-8711286D01*
X13103000Y-8725572D01*
X13117286Y-8754143D01*
X13117286Y-8825572D01*
X13103000Y-8854143D01*
X13088714Y-8868429D01*
X13060143Y-8882714D01*
X12974428Y-8882714D01*
X12945857Y-8868429D01*
X12931571Y-8854143D01*
X13403000Y-8882714D02*
X13231571Y-8882714D01*
X13317286Y-8882714D02*
X13317286Y-8582714D01*
X13288714Y-8625572D01*
X13260143Y-8654143D01*
X13231571Y-8668429D01*
X13517286Y-8582714D02*
X13517286Y-8639857D01*
X13631571Y-8582714D02*
X13631571Y-8639857D01*
X14074428Y-8997000D02*
X14060143Y-8982714D01*
X14031571Y-8939857D01*
X14017286Y-8911286D01*
X14003000Y-8868429D01*
X13988714Y-8797000D01*
X13988714Y-8739857D01*
X14003000Y-8668429D01*
X14017286Y-8625572D01*
X14031571Y-8597000D01*
X14060143Y-8554143D01*
X14074428Y-8539857D01*
X14317286Y-8582714D02*
X14260143Y-8582714D01*
X14231571Y-8597000D01*
X14217286Y-8611286D01*
X14188714Y-8654143D01*
X14174428Y-8711286D01*
X14174428Y-8825572D01*
X14188714Y-8854143D01*
X14203000Y-8868429D01*
X14231571Y-8882714D01*
X14288714Y-8882714D01*
X14317286Y-8868429D01*
X14331571Y-8854143D01*
X14345857Y-8825572D01*
X14345857Y-8754143D01*
X14331571Y-8725572D01*
X14317286Y-8711286D01*
X14288714Y-8697000D01*
X14231571Y-8697000D01*
X14203000Y-8711286D01*
X14188714Y-8725572D01*
X14174428Y-8754143D01*
X14703000Y-8882714D02*
X14703000Y-8582714D01*
X14831571Y-8882714D02*
X14831571Y-8725572D01*
X14817286Y-8697000D01*
X14788714Y-8682714D01*
X14745857Y-8682714D01*
X14717286Y-8697000D01*
X14703000Y-8711286D01*
X15017286Y-8882714D02*
X14988714Y-8868429D01*
X14974428Y-8854143D01*
X14960143Y-8825572D01*
X14960143Y-8739857D01*
X14974428Y-8711286D01*
X14988714Y-8697000D01*
X15017286Y-8682714D01*
X15060143Y-8682714D01*
X15088714Y-8697000D01*
X15103000Y-8711286D01*
X15117286Y-8739857D01*
X15117286Y-8825572D01*
X15103000Y-8854143D01*
X15088714Y-8868429D01*
X15060143Y-8882714D01*
X15017286Y-8882714D01*
X15288714Y-8882714D02*
X15260143Y-8868429D01*
X15245857Y-8839857D01*
X15245857Y-8582714D01*
X15517286Y-8868429D02*
X15488714Y-8882714D01*
X15431571Y-8882714D01*
X15403000Y-8868429D01*
X15388714Y-8839857D01*
X15388714Y-8725572D01*
X15403000Y-8697000D01*
X15431571Y-8682714D01*
X15488714Y-8682714D01*
X15517286Y-8697000D01*
X15531571Y-8725572D01*
X15531571Y-8754143D01*
X15388714Y-8782714D01*
X15645857Y-8868429D02*
X15674428Y-8882714D01*
X15731571Y-8882714D01*
X15760143Y-8868429D01*
X15774428Y-8839857D01*
X15774428Y-8825572D01*
X15760143Y-8797000D01*
X15731571Y-8782714D01*
X15688714Y-8782714D01*
X15660143Y-8768429D01*
X15645857Y-8739857D01*
X15645857Y-8725572D01*
X15660143Y-8697000D01*
X15688714Y-8682714D01*
X15731571Y-8682714D01*
X15760143Y-8697000D01*
X15874428Y-8997000D02*
X15888714Y-8982714D01*
X15917286Y-8939857D01*
X15931571Y-8911286D01*
X15945857Y-8868429D01*
X15960143Y-8797000D01*
X15960143Y-8739857D01*
X15945857Y-8668429D01*
X15931571Y-8625572D01*
X15917286Y-8597000D01*
X15888714Y-8554143D01*
X15874428Y-8539857D01*
X9368669Y-9189670D02*
X9368669Y-9096331D01*
X9275330Y-9096331D01*
X9275330Y-9189670D01*
X9368669Y-9189670D01*
X9831571Y-9278714D02*
X9660143Y-9278714D01*
X9745857Y-9278714D02*
X9745857Y-8978714D01*
X9717286Y-9021572D01*
X9688714Y-9050143D01*
X9660143Y-9064429D01*
X9960143Y-9250143D02*
X9974428Y-9264429D01*
X9960143Y-9278714D01*
X9945857Y-9264429D01*
X9960143Y-9250143D01*
X9960143Y-9278714D01*
X10074428Y-8978714D02*
X10260143Y-8978714D01*
X10160143Y-9093000D01*
X10203000Y-9093000D01*
X10231571Y-9107286D01*
X10245857Y-9121572D01*
X10260143Y-9150143D01*
X10260143Y-9221572D01*
X10245857Y-9250143D01*
X10231571Y-9264429D01*
X10203000Y-9278714D01*
X10117286Y-9278714D01*
X10088714Y-9264429D01*
X10074428Y-9250143D01*
X10374428Y-9007286D02*
X10388714Y-8993000D01*
X10417286Y-8978714D01*
X10488714Y-8978714D01*
X10517286Y-8993000D01*
X10531571Y-9007286D01*
X10545857Y-9035857D01*
X10545857Y-9064429D01*
X10531571Y-9107286D01*
X10360143Y-9278714D01*
X10545857Y-9278714D01*
X10674428Y-9278714D02*
X10674428Y-9078714D01*
X10674428Y-9107286D02*
X10688714Y-9093000D01*
X10717286Y-9078714D01*
X10760143Y-9078714D01*
X10788714Y-9093000D01*
X10803000Y-9121572D01*
X10803000Y-9278714D01*
X10803000Y-9121572D02*
X10817286Y-9093000D01*
X10845857Y-9078714D01*
X10888714Y-9078714D01*
X10917286Y-9093000D01*
X10931571Y-9121572D01*
X10931571Y-9278714D01*
X11074428Y-9278714D02*
X11074428Y-9078714D01*
X11074428Y-9107286D02*
X11088714Y-9093000D01*
X11117286Y-9078714D01*
X11160143Y-9078714D01*
X11188714Y-9093000D01*
X11203000Y-9121572D01*
X11203000Y-9278714D01*
X11203000Y-9121572D02*
X11217286Y-9093000D01*
X11245857Y-9078714D01*
X11288714Y-9078714D01*
X11317286Y-9093000D01*
X11331571Y-9121572D01*
X11331571Y-9278714D01*
X11917286Y-8964429D02*
X11660143Y-9350143D01*
X12303000Y-8978714D02*
X12331571Y-8978714D01*
X12360143Y-8993000D01*
X12374428Y-9007286D01*
X12388714Y-9035857D01*
X12403000Y-9093000D01*
X12403000Y-9164429D01*
X12388714Y-9221572D01*
X12374428Y-9250143D01*
X12360143Y-9264429D01*
X12331571Y-9278714D01*
X12303000Y-9278714D01*
X12274428Y-9264429D01*
X12260143Y-9250143D01*
X12245857Y-9221572D01*
X12231571Y-9164429D01*
X12231571Y-9093000D01*
X12245857Y-9035857D01*
X12260143Y-9007286D01*
X12274428Y-8993000D01*
X12303000Y-8978714D01*
X12531571Y-9250143D02*
X12545857Y-9264429D01*
X12531571Y-9278714D01*
X12517286Y-9264429D01*
X12531571Y-9250143D01*
X12531571Y-9278714D01*
X12731571Y-8978714D02*
X12760143Y-8978714D01*
X12788714Y-8993000D01*
X12803000Y-9007286D01*
X12817286Y-9035857D01*
X12831571Y-9093000D01*
X12831571Y-9164429D01*
X12817286Y-9221572D01*
X12803000Y-9250143D01*
X12788714Y-9264429D01*
X12760143Y-9278714D01*
X12731571Y-9278714D01*
X12703000Y-9264429D01*
X12688714Y-9250143D01*
X12674428Y-9221572D01*
X12660143Y-9164429D01*
X12660143Y-9093000D01*
X12674428Y-9035857D01*
X12688714Y-9007286D01*
X12703000Y-8993000D01*
X12731571Y-8978714D01*
X13103000Y-8978714D02*
X12960143Y-8978714D01*
X12945857Y-9121572D01*
X12960143Y-9107286D01*
X12988714Y-9093000D01*
X13060143Y-9093000D01*
X13088714Y-9107286D01*
X13103000Y-9121572D01*
X13117286Y-9150143D01*
X13117286Y-9221572D01*
X13103000Y-9250143D01*
X13088714Y-9264429D01*
X13060143Y-9278714D01*
X12988714Y-9278714D01*
X12960143Y-9264429D01*
X12945857Y-9250143D01*
X13231571Y-9007286D02*
X13245857Y-8993000D01*
X13274428Y-8978714D01*
X13345857Y-8978714D01*
X13374428Y-8993000D01*
X13388714Y-9007286D01*
X13403000Y-9035857D01*
X13403000Y-9064429D01*
X13388714Y-9107286D01*
X13217286Y-9278714D01*
X13403000Y-9278714D01*
X13517286Y-8978714D02*
X13517286Y-9035857D01*
X13631571Y-8978714D02*
X13631571Y-9035857D01*
X14074428Y-9393000D02*
X14060143Y-9378714D01*
X14031571Y-9335857D01*
X14017286Y-9307286D01*
X14003000Y-9264429D01*
X13988714Y-9193000D01*
X13988714Y-9135857D01*
X14003000Y-9064429D01*
X14017286Y-9021572D01*
X14031571Y-8993000D01*
X14060143Y-8950143D01*
X14074428Y-8935857D01*
X14317286Y-8978714D02*
X14260143Y-8978714D01*
X14231571Y-8993000D01*
X14217286Y-9007286D01*
X14188714Y-9050143D01*
X14174428Y-9107286D01*
X14174428Y-9221572D01*
X14188714Y-9250143D01*
X14203000Y-9264429D01*
X14231571Y-9278714D01*
X14288714Y-9278714D01*
X14317286Y-9264429D01*
X14331571Y-9250143D01*
X14345857Y-9221572D01*
X14345857Y-9150143D01*
X14331571Y-9121572D01*
X14317286Y-9107286D01*
X14288714Y-9093000D01*
X14231571Y-9093000D01*
X14203000Y-9107286D01*
X14188714Y-9121572D01*
X14174428Y-9150143D01*
X14703000Y-9278714D02*
X14703000Y-8978714D01*
X14831571Y-9278714D02*
X14831571Y-9121572D01*
X14817286Y-9093000D01*
X14788714Y-9078714D01*
X14745857Y-9078714D01*
X14717286Y-9093000D01*
X14703000Y-9107286D01*
X15017286Y-9278714D02*
X14988714Y-9264429D01*
X14974428Y-9250143D01*
X14960143Y-9221572D01*
X14960143Y-9135857D01*
X14974428Y-9107286D01*
X14988714Y-9093000D01*
X15017286Y-9078714D01*
X15060143Y-9078714D01*
X15088714Y-9093000D01*
X15103000Y-9107286D01*
X15117286Y-9135857D01*
X15117286Y-9221572D01*
X15103000Y-9250143D01*
X15088714Y-9264429D01*
X15060143Y-9278714D01*
X15017286Y-9278714D01*
X15288714Y-9278714D02*
X15260143Y-9264429D01*
X15245857Y-9235857D01*
X15245857Y-8978714D01*
X15517286Y-9264429D02*
X15488714Y-9278714D01*
X15431571Y-9278714D01*
X15403000Y-9264429D01*
X15388714Y-9235857D01*
X15388714Y-9121572D01*
X15403000Y-9093000D01*
X15431571Y-9078714D01*
X15488714Y-9078714D01*
X15517286Y-9093000D01*
X15531571Y-9121572D01*
X15531571Y-9150143D01*
X15388714Y-9178714D01*
X15645857Y-9264429D02*
X15674428Y-9278714D01*
X15731571Y-9278714D01*
X15760143Y-9264429D01*
X15774428Y-9235857D01*
X15774428Y-9221572D01*
X15760143Y-9193000D01*
X15731571Y-9178714D01*
X15688714Y-9178714D01*
X15660143Y-9164429D01*
X15645857Y-9135857D01*
X15645857Y-9121572D01*
X15660143Y-9093000D01*
X15688714Y-9078714D01*
X15731571Y-9078714D01*
X15760143Y-9093000D01*
X15874428Y-9393000D02*
X15888714Y-9378714D01*
X15917286Y-9335857D01*
X15931571Y-9307286D01*
X15945857Y-9264429D01*
X15960143Y-9193000D01*
X15960143Y-9135857D01*
X15945857Y-9064429D01*
X15931571Y-9021572D01*
X15917286Y-8993000D01*
X15888714Y-8950143D01*
X15874428Y-8935857D01*
M02*
