M48
;DRILL file {KiCad (5.0.0)} date 04/25/19 11:09:46
;FORMAT={-:-/ absolute / inch / decimal}
FMAT,2
INCH,TZ
T1C0.0276
T2C0.0295
T3C0.0315
T4C0.0520
%
G90
G05
M72
T1
X4.3Y-1.8
X4.6Y-2.2
X4.6Y-2.5
X4.7Y-1.75
X4.7Y-2.05
X4.3Y-2.1
X4.45Y-2.2
X4.45Y-2.5
T2
X4.45Y-1.9996
X4.5Y-1.95
X4.5Y-2.05
T3
X4.75Y-2.2031
X4.75Y-2.4
X4.85Y-1.9031
X4.85Y-2.1
X4.3Y-2.2
X4.3Y-2.3969
T4
X5.15Y-2.0031
X5.15Y-2.2
X3.95Y-2.2
X3.95Y-2.3969
X4.Y-1.7
X4.Y-1.8969
T0
M30
