M48
;DRILL file {KiCad (5.0.0)} date 05/04/19 10:54:34
;FORMAT={-:-/ absolute / metric / decimal}
FMAT,2
METRIC,TZ
T1C0.700
T2C0.750
T3C0.800
T4C1.320
%
G90
G05
M71
T1
X109.22Y-45.72
X116.84Y-55.88
X116.84Y-63.5
X119.38Y-44.45
X119.38Y-52.07
X109.22Y-53.34
X113.03Y-55.88
X113.03Y-63.5
T2
X113.03Y-50.79
X114.3Y-49.53
X114.3Y-52.07
T3
X123.19Y-48.34
X123.19Y-53.34
X120.65Y-55.96
X120.65Y-60.96
X109.22Y-55.88
X109.22Y-60.88
T4
X130.81Y-50.88
X130.81Y-55.88
X101.6Y-43.18
X101.6Y-48.18
X100.33Y-55.88
X100.33Y-60.88
T0
M30
