G04 #@! TF.GenerationSoftware,KiCad,Pcbnew,(5.0.0)*
G04 #@! TF.CreationDate,2019-04-25T11:09:40+03:00*
G04 #@! TF.ProjectId,Single_transistor_AMP,53696E676C655F7472616E736973746F,rev?*
G04 #@! TF.SameCoordinates,Original*
G04 #@! TF.FileFunction,Copper,L1,Top,Signal*
G04 #@! TF.FilePolarity,Positive*
%FSLAX46Y46*%
G04 Gerber Fmt 4.6, Leading zero omitted, Abs format (unit mm)*
G04 Created by KiCad (PCBNEW (5.0.0)) date 04/25/19 11:09:40*
%MOMM*%
%LPD*%
G01*
G04 APERTURE LIST*
G04 #@! TA.AperFunction,ComponentPad*
%ADD10R,3.960000X1.980000*%
G04 #@! TD*
G04 #@! TA.AperFunction,ComponentPad*
%ADD11O,3.960000X1.980000*%
G04 #@! TD*
G04 #@! TA.AperFunction,ComponentPad*
%ADD12C,1.600000*%
G04 #@! TD*
G04 #@! TA.AperFunction,ComponentPad*
%ADD13C,1.300000*%
G04 #@! TD*
G04 #@! TA.AperFunction,ComponentPad*
%ADD14R,1.300000X1.300000*%
G04 #@! TD*
G04 #@! TA.AperFunction,ComponentPad*
%ADD15C,1.400000*%
G04 #@! TD*
G04 #@! TA.AperFunction,ComponentPad*
%ADD16O,1.400000X1.400000*%
G04 #@! TD*
G04 #@! TA.AperFunction,Conductor*
%ADD17C,0.250000*%
G04 #@! TD*
G04 #@! TA.AperFunction,Conductor*
%ADD18C,0.300000*%
G04 #@! TD*
G04 #@! TA.AperFunction,Conductor*
%ADD19C,0.254000*%
G04 #@! TD*
G04 APERTURE END LIST*
D10*
G04 #@! TO.P,J1,1*
G04 #@! TO.N,GND*
X100330000Y-55880000D03*
D11*
G04 #@! TO.P,J1,2*
G04 #@! TO.N,Net-(C1-Pad2)*
X100330000Y-60880000D03*
G04 #@! TD*
D12*
G04 #@! TO.P,C1,1*
G04 #@! TO.N,Net-(C1-Pad1)*
X109220000Y-55880000D03*
G04 #@! TO.P,C1,2*
G04 #@! TO.N,Net-(C1-Pad2)*
X109220000Y-60880000D03*
G04 #@! TD*
G04 #@! TO.P,C2,1*
G04 #@! TO.N,Net-(C2-Pad1)*
X123190000Y-53340000D03*
G04 #@! TO.P,C2,2*
G04 #@! TO.N,Net-(C2-Pad2)*
X123190000Y-48340000D03*
G04 #@! TD*
G04 #@! TO.P,C3,2*
G04 #@! TO.N,GND*
X120650000Y-60960000D03*
G04 #@! TO.P,C3,1*
G04 #@! TO.N,Net-(C3-Pad1)*
X120650000Y-55960000D03*
G04 #@! TD*
D11*
G04 #@! TO.P,J2,2*
G04 #@! TO.N,GND*
X130810000Y-50880000D03*
D10*
G04 #@! TO.P,J2,1*
G04 #@! TO.N,Net-(C2-Pad1)*
X130810000Y-55880000D03*
G04 #@! TD*
D13*
G04 #@! TO.P,Q1,2*
G04 #@! TO.N,Net-(C1-Pad1)*
X113030000Y-50790000D03*
G04 #@! TO.P,Q1,3*
G04 #@! TO.N,Net-(C2-Pad2)*
X114300000Y-49530000D03*
D14*
G04 #@! TO.P,Q1,1*
G04 #@! TO.N,Net-(C3-Pad1)*
X114300000Y-52070000D03*
G04 #@! TD*
D15*
G04 #@! TO.P,R1,1*
G04 #@! TO.N,GND*
X113030000Y-63500000D03*
D16*
G04 #@! TO.P,R1,2*
G04 #@! TO.N,Net-(C1-Pad1)*
X113030000Y-55880000D03*
G04 #@! TD*
G04 #@! TO.P,R2,2*
G04 #@! TO.N,Net-(C1-Pad1)*
X109220000Y-53340000D03*
D15*
G04 #@! TO.P,R2,1*
G04 #@! TO.N,VCC*
X109220000Y-45720000D03*
G04 #@! TD*
G04 #@! TO.P,R3,1*
G04 #@! TO.N,VCC*
X119380000Y-44450000D03*
D16*
G04 #@! TO.P,R3,2*
G04 #@! TO.N,Net-(C2-Pad2)*
X119380000Y-52070000D03*
G04 #@! TD*
G04 #@! TO.P,R4,2*
G04 #@! TO.N,Net-(C3-Pad1)*
X116840000Y-55880000D03*
D15*
G04 #@! TO.P,R4,1*
G04 #@! TO.N,GND*
X116840000Y-63500000D03*
G04 #@! TD*
D10*
G04 #@! TO.P,J3,1*
G04 #@! TO.N,VCC*
X101600000Y-43180000D03*
D11*
G04 #@! TO.P,J3,2*
G04 #@! TO.N,GND*
X101600000Y-48180000D03*
G04 #@! TD*
D17*
G04 #@! TO.N,Net-(C1-Pad1)*
X113030000Y-55880000D02*
X109220000Y-55880000D01*
X109220000Y-53340000D02*
X109220000Y-55880000D01*
X111770000Y-50790000D02*
X109220000Y-53340000D01*
X113030000Y-50790000D02*
X111770000Y-50790000D01*
G04 #@! TO.N,Net-(C1-Pad2)*
X100330000Y-60880000D02*
X109220000Y-60880000D01*
G04 #@! TO.N,Net-(C2-Pad1)*
X125730000Y-55880000D02*
X123190000Y-53340000D01*
X130810000Y-55880000D02*
X125730000Y-55880000D01*
G04 #@! TO.N,Net-(C2-Pad2)*
X116840000Y-52070000D02*
X114300000Y-49530000D01*
X119380000Y-52070000D02*
X116840000Y-52070000D01*
X119460000Y-52070000D02*
X119380000Y-52070000D01*
X123190000Y-48340000D02*
X119460000Y-52070000D01*
D18*
G04 #@! TO.N,GND*
X119380000Y-60960000D02*
X116840000Y-63500000D01*
X120650000Y-60960000D02*
X119380000Y-60960000D01*
X116840000Y-63500000D02*
X113030000Y-63500000D01*
D17*
G04 #@! TO.N,Net-(C3-Pad1)*
X115200000Y-52070000D02*
X114300000Y-52070000D01*
X116840000Y-53710000D02*
X115200000Y-52070000D01*
X116840000Y-55880000D02*
X116840000Y-53710000D01*
X116920000Y-55960000D02*
X116840000Y-55880000D01*
X120650000Y-55960000D02*
X116920000Y-55960000D01*
D18*
G04 #@! TO.N,VCC*
X110490000Y-44450000D02*
X109220000Y-45720000D01*
X119380000Y-44450000D02*
X110490000Y-44450000D01*
X106680000Y-43180000D02*
X109220000Y-45720000D01*
X101600000Y-43180000D02*
X106680000Y-43180000D01*
G04 #@! TD*
D19*
G04 #@! TO.N,GND*
G36*
X137033000Y-68453000D02*
X95377000Y-68453000D01*
X95377000Y-64435275D01*
X112274331Y-64435275D01*
X112336169Y-64671042D01*
X112837122Y-64847419D01*
X113367440Y-64818664D01*
X113723831Y-64671042D01*
X113785669Y-64435275D01*
X116084331Y-64435275D01*
X116146169Y-64671042D01*
X116647122Y-64847419D01*
X117177440Y-64818664D01*
X117533831Y-64671042D01*
X117595669Y-64435275D01*
X116840000Y-63679605D01*
X116084331Y-64435275D01*
X113785669Y-64435275D01*
X113030000Y-63679605D01*
X112274331Y-64435275D01*
X95377000Y-64435275D01*
X95377000Y-63307122D01*
X111682581Y-63307122D01*
X111711336Y-63837440D01*
X111858958Y-64193831D01*
X112094725Y-64255669D01*
X112850395Y-63500000D01*
X113209605Y-63500000D01*
X113965275Y-64255669D01*
X114201042Y-64193831D01*
X114377419Y-63692878D01*
X114356503Y-63307122D01*
X115492581Y-63307122D01*
X115521336Y-63837440D01*
X115668958Y-64193831D01*
X115904725Y-64255669D01*
X116660395Y-63500000D01*
X117019605Y-63500000D01*
X117775275Y-64255669D01*
X118011042Y-64193831D01*
X118187419Y-63692878D01*
X118158664Y-63162560D01*
X118011042Y-62806169D01*
X117775275Y-62744331D01*
X117019605Y-63500000D01*
X116660395Y-63500000D01*
X115904725Y-62744331D01*
X115668958Y-62806169D01*
X115492581Y-63307122D01*
X114356503Y-63307122D01*
X114348664Y-63162560D01*
X114201042Y-62806169D01*
X113965275Y-62744331D01*
X113209605Y-63500000D01*
X112850395Y-63500000D01*
X112094725Y-62744331D01*
X111858958Y-62806169D01*
X111682581Y-63307122D01*
X95377000Y-63307122D01*
X95377000Y-62564725D01*
X112274331Y-62564725D01*
X113030000Y-63320395D01*
X113785669Y-62564725D01*
X116084331Y-62564725D01*
X116840000Y-63320395D01*
X117595669Y-62564725D01*
X117533831Y-62328958D01*
X117032878Y-62152581D01*
X116502560Y-62181336D01*
X116146169Y-62328958D01*
X116084331Y-62564725D01*
X113785669Y-62564725D01*
X113723831Y-62328958D01*
X113222878Y-62152581D01*
X112692560Y-62181336D01*
X112336169Y-62328958D01*
X112274331Y-62564725D01*
X95377000Y-62564725D01*
X95377000Y-60880000D01*
X97683165Y-60880000D01*
X97809284Y-61514043D01*
X98168441Y-62051559D01*
X98705957Y-62410716D01*
X99179955Y-62505000D01*
X101480045Y-62505000D01*
X101954043Y-62410716D01*
X102491559Y-62051559D01*
X102766554Y-61640000D01*
X107981570Y-61640000D01*
X108003466Y-61692862D01*
X108407138Y-62096534D01*
X108934561Y-62315000D01*
X109505439Y-62315000D01*
X110032862Y-62096534D01*
X110161651Y-61967745D01*
X119821861Y-61967745D01*
X119895995Y-62213864D01*
X120433223Y-62406965D01*
X121003454Y-62379778D01*
X121404005Y-62213864D01*
X121478139Y-61967745D01*
X120650000Y-61139605D01*
X119821861Y-61967745D01*
X110161651Y-61967745D01*
X110436534Y-61692862D01*
X110655000Y-61165439D01*
X110655000Y-60743223D01*
X119203035Y-60743223D01*
X119230222Y-61313454D01*
X119396136Y-61714005D01*
X119642255Y-61788139D01*
X120470395Y-60960000D01*
X120829605Y-60960000D01*
X121657745Y-61788139D01*
X121903864Y-61714005D01*
X122096965Y-61176777D01*
X122069778Y-60606546D01*
X121903864Y-60205995D01*
X121657745Y-60131861D01*
X120829605Y-60960000D01*
X120470395Y-60960000D01*
X119642255Y-60131861D01*
X119396136Y-60205995D01*
X119203035Y-60743223D01*
X110655000Y-60743223D01*
X110655000Y-60594561D01*
X110436534Y-60067138D01*
X110321651Y-59952255D01*
X119821861Y-59952255D01*
X120650000Y-60780395D01*
X121478139Y-59952255D01*
X121404005Y-59706136D01*
X120866777Y-59513035D01*
X120296546Y-59540222D01*
X119895995Y-59706136D01*
X119821861Y-59952255D01*
X110321651Y-59952255D01*
X110032862Y-59663466D01*
X109505439Y-59445000D01*
X108934561Y-59445000D01*
X108407138Y-59663466D01*
X108003466Y-60067138D01*
X107981570Y-60120000D01*
X102766554Y-60120000D01*
X102491559Y-59708441D01*
X101954043Y-59349284D01*
X101480045Y-59255000D01*
X99179955Y-59255000D01*
X98705957Y-59349284D01*
X98168441Y-59708441D01*
X97809284Y-60245957D01*
X97683165Y-60880000D01*
X95377000Y-60880000D01*
X95377000Y-56165750D01*
X97715000Y-56165750D01*
X97715000Y-56996309D01*
X97811673Y-57229698D01*
X97990301Y-57408327D01*
X98223690Y-57505000D01*
X100044250Y-57505000D01*
X100203000Y-57346250D01*
X100203000Y-56007000D01*
X100457000Y-56007000D01*
X100457000Y-57346250D01*
X100615750Y-57505000D01*
X102436310Y-57505000D01*
X102669699Y-57408327D01*
X102848327Y-57229698D01*
X102945000Y-56996309D01*
X102945000Y-56165750D01*
X102786250Y-56007000D01*
X100457000Y-56007000D01*
X100203000Y-56007000D01*
X97873750Y-56007000D01*
X97715000Y-56165750D01*
X95377000Y-56165750D01*
X95377000Y-54763691D01*
X97715000Y-54763691D01*
X97715000Y-55594250D01*
X97873750Y-55753000D01*
X100203000Y-55753000D01*
X100203000Y-54413750D01*
X100457000Y-54413750D01*
X100457000Y-55753000D01*
X102786250Y-55753000D01*
X102944689Y-55594561D01*
X107785000Y-55594561D01*
X107785000Y-56165439D01*
X108003466Y-56692862D01*
X108407138Y-57096534D01*
X108934561Y-57315000D01*
X109505439Y-57315000D01*
X110032862Y-57096534D01*
X110436534Y-56692862D01*
X110458430Y-56640000D01*
X111932226Y-56640000D01*
X112067519Y-56842481D01*
X112509109Y-57137542D01*
X112898515Y-57215000D01*
X113161485Y-57215000D01*
X113550891Y-57137542D01*
X113992481Y-56842481D01*
X114287542Y-56400891D01*
X114391154Y-55880000D01*
X114287542Y-55359109D01*
X113992481Y-54917519D01*
X113550891Y-54622458D01*
X113161485Y-54545000D01*
X112898515Y-54545000D01*
X112509109Y-54622458D01*
X112067519Y-54917519D01*
X111932226Y-55120000D01*
X110458430Y-55120000D01*
X110436534Y-55067138D01*
X110032862Y-54663466D01*
X109980000Y-54641570D01*
X109980000Y-54437774D01*
X110182481Y-54302481D01*
X110477542Y-53860891D01*
X110581154Y-53340000D01*
X110533645Y-53101156D01*
X112028768Y-51606033D01*
X112302106Y-51879371D01*
X112774398Y-52075000D01*
X113002560Y-52075000D01*
X113002560Y-52720000D01*
X113051843Y-52967765D01*
X113192191Y-53177809D01*
X113402235Y-53318157D01*
X113650000Y-53367440D01*
X114950000Y-53367440D01*
X115197765Y-53318157D01*
X115303024Y-53247825D01*
X116080001Y-54024803D01*
X116080001Y-54782225D01*
X115877519Y-54917519D01*
X115582458Y-55359109D01*
X115478846Y-55880000D01*
X115582458Y-56400891D01*
X115877519Y-56842481D01*
X116319109Y-57137542D01*
X116708515Y-57215000D01*
X116971485Y-57215000D01*
X117360891Y-57137542D01*
X117802481Y-56842481D01*
X117884320Y-56720000D01*
X119411570Y-56720000D01*
X119433466Y-56772862D01*
X119837138Y-57176534D01*
X120364561Y-57395000D01*
X120935439Y-57395000D01*
X121462862Y-57176534D01*
X121866534Y-56772862D01*
X122085000Y-56245439D01*
X122085000Y-55674561D01*
X121866534Y-55147138D01*
X121462862Y-54743466D01*
X120935439Y-54525000D01*
X120364561Y-54525000D01*
X119837138Y-54743466D01*
X119433466Y-55147138D01*
X119411570Y-55200000D01*
X117991229Y-55200000D01*
X117802481Y-54917519D01*
X117600000Y-54782226D01*
X117600000Y-53784846D01*
X117614888Y-53709999D01*
X117600000Y-53635152D01*
X117600000Y-53635148D01*
X117555904Y-53413463D01*
X117387929Y-53162071D01*
X117324473Y-53119671D01*
X117034802Y-52830000D01*
X118282226Y-52830000D01*
X118417519Y-53032481D01*
X118859109Y-53327542D01*
X119248515Y-53405000D01*
X119511485Y-53405000D01*
X119900891Y-53327542D01*
X120309435Y-53054561D01*
X121755000Y-53054561D01*
X121755000Y-53625439D01*
X121973466Y-54152862D01*
X122377138Y-54556534D01*
X122904561Y-54775000D01*
X123475439Y-54775000D01*
X123528302Y-54753103D01*
X125139673Y-56364476D01*
X125182071Y-56427929D01*
X125245524Y-56470327D01*
X125245526Y-56470329D01*
X125301799Y-56507929D01*
X125433463Y-56595904D01*
X125655148Y-56640000D01*
X125655152Y-56640000D01*
X125729999Y-56654888D01*
X125804846Y-56640000D01*
X128182560Y-56640000D01*
X128182560Y-56870000D01*
X128231843Y-57117765D01*
X128372191Y-57327809D01*
X128582235Y-57468157D01*
X128830000Y-57517440D01*
X132790000Y-57517440D01*
X133037765Y-57468157D01*
X133247809Y-57327809D01*
X133388157Y-57117765D01*
X133437440Y-56870000D01*
X133437440Y-54890000D01*
X133388157Y-54642235D01*
X133247809Y-54432191D01*
X133037765Y-54291843D01*
X132790000Y-54242560D01*
X128830000Y-54242560D01*
X128582235Y-54291843D01*
X128372191Y-54432191D01*
X128231843Y-54642235D01*
X128182560Y-54890000D01*
X128182560Y-55120000D01*
X126044803Y-55120000D01*
X124603103Y-53678302D01*
X124625000Y-53625439D01*
X124625000Y-53054561D01*
X124406534Y-52527138D01*
X124002862Y-52123466D01*
X123475439Y-51905000D01*
X122904561Y-51905000D01*
X122377138Y-52123466D01*
X121973466Y-52527138D01*
X121755000Y-53054561D01*
X120309435Y-53054561D01*
X120342481Y-53032481D01*
X120637542Y-52590891D01*
X120741154Y-52070000D01*
X120706918Y-51897883D01*
X121345936Y-51258865D01*
X128239782Y-51258865D01*
X128270095Y-51384528D01*
X128581149Y-51939246D01*
X129080807Y-52332703D01*
X129693000Y-52505000D01*
X130683000Y-52505000D01*
X130683000Y-51007000D01*
X130937000Y-51007000D01*
X130937000Y-52505000D01*
X131927000Y-52505000D01*
X132539193Y-52332703D01*
X133038851Y-51939246D01*
X133349905Y-51384528D01*
X133380218Y-51258865D01*
X133260740Y-51007000D01*
X130937000Y-51007000D01*
X130683000Y-51007000D01*
X128359260Y-51007000D01*
X128239782Y-51258865D01*
X121345936Y-51258865D01*
X122103666Y-50501135D01*
X128239782Y-50501135D01*
X128359260Y-50753000D01*
X130683000Y-50753000D01*
X130683000Y-49255000D01*
X130937000Y-49255000D01*
X130937000Y-50753000D01*
X133260740Y-50753000D01*
X133380218Y-50501135D01*
X133349905Y-50375472D01*
X133038851Y-49820754D01*
X132539193Y-49427297D01*
X131927000Y-49255000D01*
X130937000Y-49255000D01*
X130683000Y-49255000D01*
X129693000Y-49255000D01*
X129080807Y-49427297D01*
X128581149Y-49820754D01*
X128270095Y-50375472D01*
X128239782Y-50501135D01*
X122103666Y-50501135D01*
X122851698Y-49753104D01*
X122904561Y-49775000D01*
X123475439Y-49775000D01*
X124002862Y-49556534D01*
X124406534Y-49152862D01*
X124625000Y-48625439D01*
X124625000Y-48054561D01*
X124406534Y-47527138D01*
X124002862Y-47123466D01*
X123475439Y-46905000D01*
X122904561Y-46905000D01*
X122377138Y-47123466D01*
X121973466Y-47527138D01*
X121755000Y-48054561D01*
X121755000Y-48625439D01*
X121776896Y-48678302D01*
X119685571Y-50769628D01*
X119511485Y-50735000D01*
X119248515Y-50735000D01*
X118859109Y-50812458D01*
X118417519Y-51107519D01*
X118282226Y-51310000D01*
X117154803Y-51310000D01*
X115585000Y-49740198D01*
X115585000Y-49274398D01*
X115389371Y-48802106D01*
X115027894Y-48440629D01*
X114555602Y-48245000D01*
X114044398Y-48245000D01*
X113572106Y-48440629D01*
X113210629Y-48802106D01*
X113015000Y-49274398D01*
X113015000Y-49505000D01*
X112774398Y-49505000D01*
X112302106Y-49700629D01*
X111972735Y-50030000D01*
X111844848Y-50030000D01*
X111770000Y-50015112D01*
X111695152Y-50030000D01*
X111695148Y-50030000D01*
X111473463Y-50074096D01*
X111222071Y-50242071D01*
X111179671Y-50305527D01*
X109458844Y-52026355D01*
X109351485Y-52005000D01*
X109088515Y-52005000D01*
X108699109Y-52082458D01*
X108257519Y-52377519D01*
X107962458Y-52819109D01*
X107858846Y-53340000D01*
X107962458Y-53860891D01*
X108257519Y-54302481D01*
X108460000Y-54437775D01*
X108460001Y-54641570D01*
X108407138Y-54663466D01*
X108003466Y-55067138D01*
X107785000Y-55594561D01*
X102944689Y-55594561D01*
X102945000Y-55594250D01*
X102945000Y-54763691D01*
X102848327Y-54530302D01*
X102669699Y-54351673D01*
X102436310Y-54255000D01*
X100615750Y-54255000D01*
X100457000Y-54413750D01*
X100203000Y-54413750D01*
X100044250Y-54255000D01*
X98223690Y-54255000D01*
X97990301Y-54351673D01*
X97811673Y-54530302D01*
X97715000Y-54763691D01*
X95377000Y-54763691D01*
X95377000Y-48558865D01*
X99029782Y-48558865D01*
X99060095Y-48684528D01*
X99371149Y-49239246D01*
X99870807Y-49632703D01*
X100483000Y-49805000D01*
X101473000Y-49805000D01*
X101473000Y-48307000D01*
X101727000Y-48307000D01*
X101727000Y-49805000D01*
X102717000Y-49805000D01*
X103329193Y-49632703D01*
X103828851Y-49239246D01*
X104139905Y-48684528D01*
X104170218Y-48558865D01*
X104050740Y-48307000D01*
X101727000Y-48307000D01*
X101473000Y-48307000D01*
X99149260Y-48307000D01*
X99029782Y-48558865D01*
X95377000Y-48558865D01*
X95377000Y-47801135D01*
X99029782Y-47801135D01*
X99149260Y-48053000D01*
X101473000Y-48053000D01*
X101473000Y-46555000D01*
X101727000Y-46555000D01*
X101727000Y-48053000D01*
X104050740Y-48053000D01*
X104170218Y-47801135D01*
X104139905Y-47675472D01*
X103828851Y-47120754D01*
X103329193Y-46727297D01*
X102717000Y-46555000D01*
X101727000Y-46555000D01*
X101473000Y-46555000D01*
X100483000Y-46555000D01*
X99870807Y-46727297D01*
X99371149Y-47120754D01*
X99060095Y-47675472D01*
X99029782Y-47801135D01*
X95377000Y-47801135D01*
X95377000Y-42190000D01*
X98972560Y-42190000D01*
X98972560Y-44170000D01*
X99021843Y-44417765D01*
X99162191Y-44627809D01*
X99372235Y-44768157D01*
X99620000Y-44817440D01*
X103580000Y-44817440D01*
X103827765Y-44768157D01*
X104037809Y-44627809D01*
X104178157Y-44417765D01*
X104227440Y-44170000D01*
X104227440Y-43965000D01*
X106354843Y-43965000D01*
X107885000Y-45495158D01*
X107885000Y-45985548D01*
X108088242Y-46476217D01*
X108463783Y-46851758D01*
X108954452Y-47055000D01*
X109485548Y-47055000D01*
X109976217Y-46851758D01*
X110351758Y-46476217D01*
X110555000Y-45985548D01*
X110555000Y-45495158D01*
X110815158Y-45235000D01*
X118277025Y-45235000D01*
X118623783Y-45581758D01*
X119114452Y-45785000D01*
X119645548Y-45785000D01*
X120136217Y-45581758D01*
X120511758Y-45206217D01*
X120715000Y-44715548D01*
X120715000Y-44184452D01*
X120511758Y-43693783D01*
X120136217Y-43318242D01*
X119645548Y-43115000D01*
X119114452Y-43115000D01*
X118623783Y-43318242D01*
X118277025Y-43665000D01*
X110567310Y-43665000D01*
X110489999Y-43649622D01*
X110412688Y-43665000D01*
X110412684Y-43665000D01*
X110183708Y-43710546D01*
X110064625Y-43790115D01*
X109989591Y-43840251D01*
X109989589Y-43840253D01*
X109924047Y-43884047D01*
X109880253Y-43949589D01*
X109444842Y-44385000D01*
X108995158Y-44385000D01*
X107289749Y-42679592D01*
X107245953Y-42614047D01*
X106986292Y-42440546D01*
X106757316Y-42395000D01*
X106757312Y-42395000D01*
X106680000Y-42379622D01*
X106602688Y-42395000D01*
X104227440Y-42395000D01*
X104227440Y-42190000D01*
X104178157Y-41942235D01*
X104037809Y-41732191D01*
X103827765Y-41591843D01*
X103580000Y-41542560D01*
X99620000Y-41542560D01*
X99372235Y-41591843D01*
X99162191Y-41732191D01*
X99021843Y-41942235D01*
X98972560Y-42190000D01*
X95377000Y-42190000D01*
X95377000Y-40080000D01*
X137033000Y-40080000D01*
X137033000Y-68453000D01*
X137033000Y-68453000D01*
G37*
X137033000Y-68453000D02*
X95377000Y-68453000D01*
X95377000Y-64435275D01*
X112274331Y-64435275D01*
X112336169Y-64671042D01*
X112837122Y-64847419D01*
X113367440Y-64818664D01*
X113723831Y-64671042D01*
X113785669Y-64435275D01*
X116084331Y-64435275D01*
X116146169Y-64671042D01*
X116647122Y-64847419D01*
X117177440Y-64818664D01*
X117533831Y-64671042D01*
X117595669Y-64435275D01*
X116840000Y-63679605D01*
X116084331Y-64435275D01*
X113785669Y-64435275D01*
X113030000Y-63679605D01*
X112274331Y-64435275D01*
X95377000Y-64435275D01*
X95377000Y-63307122D01*
X111682581Y-63307122D01*
X111711336Y-63837440D01*
X111858958Y-64193831D01*
X112094725Y-64255669D01*
X112850395Y-63500000D01*
X113209605Y-63500000D01*
X113965275Y-64255669D01*
X114201042Y-64193831D01*
X114377419Y-63692878D01*
X114356503Y-63307122D01*
X115492581Y-63307122D01*
X115521336Y-63837440D01*
X115668958Y-64193831D01*
X115904725Y-64255669D01*
X116660395Y-63500000D01*
X117019605Y-63500000D01*
X117775275Y-64255669D01*
X118011042Y-64193831D01*
X118187419Y-63692878D01*
X118158664Y-63162560D01*
X118011042Y-62806169D01*
X117775275Y-62744331D01*
X117019605Y-63500000D01*
X116660395Y-63500000D01*
X115904725Y-62744331D01*
X115668958Y-62806169D01*
X115492581Y-63307122D01*
X114356503Y-63307122D01*
X114348664Y-63162560D01*
X114201042Y-62806169D01*
X113965275Y-62744331D01*
X113209605Y-63500000D01*
X112850395Y-63500000D01*
X112094725Y-62744331D01*
X111858958Y-62806169D01*
X111682581Y-63307122D01*
X95377000Y-63307122D01*
X95377000Y-62564725D01*
X112274331Y-62564725D01*
X113030000Y-63320395D01*
X113785669Y-62564725D01*
X116084331Y-62564725D01*
X116840000Y-63320395D01*
X117595669Y-62564725D01*
X117533831Y-62328958D01*
X117032878Y-62152581D01*
X116502560Y-62181336D01*
X116146169Y-62328958D01*
X116084331Y-62564725D01*
X113785669Y-62564725D01*
X113723831Y-62328958D01*
X113222878Y-62152581D01*
X112692560Y-62181336D01*
X112336169Y-62328958D01*
X112274331Y-62564725D01*
X95377000Y-62564725D01*
X95377000Y-60880000D01*
X97683165Y-60880000D01*
X97809284Y-61514043D01*
X98168441Y-62051559D01*
X98705957Y-62410716D01*
X99179955Y-62505000D01*
X101480045Y-62505000D01*
X101954043Y-62410716D01*
X102491559Y-62051559D01*
X102766554Y-61640000D01*
X107981570Y-61640000D01*
X108003466Y-61692862D01*
X108407138Y-62096534D01*
X108934561Y-62315000D01*
X109505439Y-62315000D01*
X110032862Y-62096534D01*
X110161651Y-61967745D01*
X119821861Y-61967745D01*
X119895995Y-62213864D01*
X120433223Y-62406965D01*
X121003454Y-62379778D01*
X121404005Y-62213864D01*
X121478139Y-61967745D01*
X120650000Y-61139605D01*
X119821861Y-61967745D01*
X110161651Y-61967745D01*
X110436534Y-61692862D01*
X110655000Y-61165439D01*
X110655000Y-60743223D01*
X119203035Y-60743223D01*
X119230222Y-61313454D01*
X119396136Y-61714005D01*
X119642255Y-61788139D01*
X120470395Y-60960000D01*
X120829605Y-60960000D01*
X121657745Y-61788139D01*
X121903864Y-61714005D01*
X122096965Y-61176777D01*
X122069778Y-60606546D01*
X121903864Y-60205995D01*
X121657745Y-60131861D01*
X120829605Y-60960000D01*
X120470395Y-60960000D01*
X119642255Y-60131861D01*
X119396136Y-60205995D01*
X119203035Y-60743223D01*
X110655000Y-60743223D01*
X110655000Y-60594561D01*
X110436534Y-60067138D01*
X110321651Y-59952255D01*
X119821861Y-59952255D01*
X120650000Y-60780395D01*
X121478139Y-59952255D01*
X121404005Y-59706136D01*
X120866777Y-59513035D01*
X120296546Y-59540222D01*
X119895995Y-59706136D01*
X119821861Y-59952255D01*
X110321651Y-59952255D01*
X110032862Y-59663466D01*
X109505439Y-59445000D01*
X108934561Y-59445000D01*
X108407138Y-59663466D01*
X108003466Y-60067138D01*
X107981570Y-60120000D01*
X102766554Y-60120000D01*
X102491559Y-59708441D01*
X101954043Y-59349284D01*
X101480045Y-59255000D01*
X99179955Y-59255000D01*
X98705957Y-59349284D01*
X98168441Y-59708441D01*
X97809284Y-60245957D01*
X97683165Y-60880000D01*
X95377000Y-60880000D01*
X95377000Y-56165750D01*
X97715000Y-56165750D01*
X97715000Y-56996309D01*
X97811673Y-57229698D01*
X97990301Y-57408327D01*
X98223690Y-57505000D01*
X100044250Y-57505000D01*
X100203000Y-57346250D01*
X100203000Y-56007000D01*
X100457000Y-56007000D01*
X100457000Y-57346250D01*
X100615750Y-57505000D01*
X102436310Y-57505000D01*
X102669699Y-57408327D01*
X102848327Y-57229698D01*
X102945000Y-56996309D01*
X102945000Y-56165750D01*
X102786250Y-56007000D01*
X100457000Y-56007000D01*
X100203000Y-56007000D01*
X97873750Y-56007000D01*
X97715000Y-56165750D01*
X95377000Y-56165750D01*
X95377000Y-54763691D01*
X97715000Y-54763691D01*
X97715000Y-55594250D01*
X97873750Y-55753000D01*
X100203000Y-55753000D01*
X100203000Y-54413750D01*
X100457000Y-54413750D01*
X100457000Y-55753000D01*
X102786250Y-55753000D01*
X102944689Y-55594561D01*
X107785000Y-55594561D01*
X107785000Y-56165439D01*
X108003466Y-56692862D01*
X108407138Y-57096534D01*
X108934561Y-57315000D01*
X109505439Y-57315000D01*
X110032862Y-57096534D01*
X110436534Y-56692862D01*
X110458430Y-56640000D01*
X111932226Y-56640000D01*
X112067519Y-56842481D01*
X112509109Y-57137542D01*
X112898515Y-57215000D01*
X113161485Y-57215000D01*
X113550891Y-57137542D01*
X113992481Y-56842481D01*
X114287542Y-56400891D01*
X114391154Y-55880000D01*
X114287542Y-55359109D01*
X113992481Y-54917519D01*
X113550891Y-54622458D01*
X113161485Y-54545000D01*
X112898515Y-54545000D01*
X112509109Y-54622458D01*
X112067519Y-54917519D01*
X111932226Y-55120000D01*
X110458430Y-55120000D01*
X110436534Y-55067138D01*
X110032862Y-54663466D01*
X109980000Y-54641570D01*
X109980000Y-54437774D01*
X110182481Y-54302481D01*
X110477542Y-53860891D01*
X110581154Y-53340000D01*
X110533645Y-53101156D01*
X112028768Y-51606033D01*
X112302106Y-51879371D01*
X112774398Y-52075000D01*
X113002560Y-52075000D01*
X113002560Y-52720000D01*
X113051843Y-52967765D01*
X113192191Y-53177809D01*
X113402235Y-53318157D01*
X113650000Y-53367440D01*
X114950000Y-53367440D01*
X115197765Y-53318157D01*
X115303024Y-53247825D01*
X116080001Y-54024803D01*
X116080001Y-54782225D01*
X115877519Y-54917519D01*
X115582458Y-55359109D01*
X115478846Y-55880000D01*
X115582458Y-56400891D01*
X115877519Y-56842481D01*
X116319109Y-57137542D01*
X116708515Y-57215000D01*
X116971485Y-57215000D01*
X117360891Y-57137542D01*
X117802481Y-56842481D01*
X117884320Y-56720000D01*
X119411570Y-56720000D01*
X119433466Y-56772862D01*
X119837138Y-57176534D01*
X120364561Y-57395000D01*
X120935439Y-57395000D01*
X121462862Y-57176534D01*
X121866534Y-56772862D01*
X122085000Y-56245439D01*
X122085000Y-55674561D01*
X121866534Y-55147138D01*
X121462862Y-54743466D01*
X120935439Y-54525000D01*
X120364561Y-54525000D01*
X119837138Y-54743466D01*
X119433466Y-55147138D01*
X119411570Y-55200000D01*
X117991229Y-55200000D01*
X117802481Y-54917519D01*
X117600000Y-54782226D01*
X117600000Y-53784846D01*
X117614888Y-53709999D01*
X117600000Y-53635152D01*
X117600000Y-53635148D01*
X117555904Y-53413463D01*
X117387929Y-53162071D01*
X117324473Y-53119671D01*
X117034802Y-52830000D01*
X118282226Y-52830000D01*
X118417519Y-53032481D01*
X118859109Y-53327542D01*
X119248515Y-53405000D01*
X119511485Y-53405000D01*
X119900891Y-53327542D01*
X120309435Y-53054561D01*
X121755000Y-53054561D01*
X121755000Y-53625439D01*
X121973466Y-54152862D01*
X122377138Y-54556534D01*
X122904561Y-54775000D01*
X123475439Y-54775000D01*
X123528302Y-54753103D01*
X125139673Y-56364476D01*
X125182071Y-56427929D01*
X125245524Y-56470327D01*
X125245526Y-56470329D01*
X125301799Y-56507929D01*
X125433463Y-56595904D01*
X125655148Y-56640000D01*
X125655152Y-56640000D01*
X125729999Y-56654888D01*
X125804846Y-56640000D01*
X128182560Y-56640000D01*
X128182560Y-56870000D01*
X128231843Y-57117765D01*
X128372191Y-57327809D01*
X128582235Y-57468157D01*
X128830000Y-57517440D01*
X132790000Y-57517440D01*
X133037765Y-57468157D01*
X133247809Y-57327809D01*
X133388157Y-57117765D01*
X133437440Y-56870000D01*
X133437440Y-54890000D01*
X133388157Y-54642235D01*
X133247809Y-54432191D01*
X133037765Y-54291843D01*
X132790000Y-54242560D01*
X128830000Y-54242560D01*
X128582235Y-54291843D01*
X128372191Y-54432191D01*
X128231843Y-54642235D01*
X128182560Y-54890000D01*
X128182560Y-55120000D01*
X126044803Y-55120000D01*
X124603103Y-53678302D01*
X124625000Y-53625439D01*
X124625000Y-53054561D01*
X124406534Y-52527138D01*
X124002862Y-52123466D01*
X123475439Y-51905000D01*
X122904561Y-51905000D01*
X122377138Y-52123466D01*
X121973466Y-52527138D01*
X121755000Y-53054561D01*
X120309435Y-53054561D01*
X120342481Y-53032481D01*
X120637542Y-52590891D01*
X120741154Y-52070000D01*
X120706918Y-51897883D01*
X121345936Y-51258865D01*
X128239782Y-51258865D01*
X128270095Y-51384528D01*
X128581149Y-51939246D01*
X129080807Y-52332703D01*
X129693000Y-52505000D01*
X130683000Y-52505000D01*
X130683000Y-51007000D01*
X130937000Y-51007000D01*
X130937000Y-52505000D01*
X131927000Y-52505000D01*
X132539193Y-52332703D01*
X133038851Y-51939246D01*
X133349905Y-51384528D01*
X133380218Y-51258865D01*
X133260740Y-51007000D01*
X130937000Y-51007000D01*
X130683000Y-51007000D01*
X128359260Y-51007000D01*
X128239782Y-51258865D01*
X121345936Y-51258865D01*
X122103666Y-50501135D01*
X128239782Y-50501135D01*
X128359260Y-50753000D01*
X130683000Y-50753000D01*
X130683000Y-49255000D01*
X130937000Y-49255000D01*
X130937000Y-50753000D01*
X133260740Y-50753000D01*
X133380218Y-50501135D01*
X133349905Y-50375472D01*
X133038851Y-49820754D01*
X132539193Y-49427297D01*
X131927000Y-49255000D01*
X130937000Y-49255000D01*
X130683000Y-49255000D01*
X129693000Y-49255000D01*
X129080807Y-49427297D01*
X128581149Y-49820754D01*
X128270095Y-50375472D01*
X128239782Y-50501135D01*
X122103666Y-50501135D01*
X122851698Y-49753104D01*
X122904561Y-49775000D01*
X123475439Y-49775000D01*
X124002862Y-49556534D01*
X124406534Y-49152862D01*
X124625000Y-48625439D01*
X124625000Y-48054561D01*
X124406534Y-47527138D01*
X124002862Y-47123466D01*
X123475439Y-46905000D01*
X122904561Y-46905000D01*
X122377138Y-47123466D01*
X121973466Y-47527138D01*
X121755000Y-48054561D01*
X121755000Y-48625439D01*
X121776896Y-48678302D01*
X119685571Y-50769628D01*
X119511485Y-50735000D01*
X119248515Y-50735000D01*
X118859109Y-50812458D01*
X118417519Y-51107519D01*
X118282226Y-51310000D01*
X117154803Y-51310000D01*
X115585000Y-49740198D01*
X115585000Y-49274398D01*
X115389371Y-48802106D01*
X115027894Y-48440629D01*
X114555602Y-48245000D01*
X114044398Y-48245000D01*
X113572106Y-48440629D01*
X113210629Y-48802106D01*
X113015000Y-49274398D01*
X113015000Y-49505000D01*
X112774398Y-49505000D01*
X112302106Y-49700629D01*
X111972735Y-50030000D01*
X111844848Y-50030000D01*
X111770000Y-50015112D01*
X111695152Y-50030000D01*
X111695148Y-50030000D01*
X111473463Y-50074096D01*
X111222071Y-50242071D01*
X111179671Y-50305527D01*
X109458844Y-52026355D01*
X109351485Y-52005000D01*
X109088515Y-52005000D01*
X108699109Y-52082458D01*
X108257519Y-52377519D01*
X107962458Y-52819109D01*
X107858846Y-53340000D01*
X107962458Y-53860891D01*
X108257519Y-54302481D01*
X108460000Y-54437775D01*
X108460001Y-54641570D01*
X108407138Y-54663466D01*
X108003466Y-55067138D01*
X107785000Y-55594561D01*
X102944689Y-55594561D01*
X102945000Y-55594250D01*
X102945000Y-54763691D01*
X102848327Y-54530302D01*
X102669699Y-54351673D01*
X102436310Y-54255000D01*
X100615750Y-54255000D01*
X100457000Y-54413750D01*
X100203000Y-54413750D01*
X100044250Y-54255000D01*
X98223690Y-54255000D01*
X97990301Y-54351673D01*
X97811673Y-54530302D01*
X97715000Y-54763691D01*
X95377000Y-54763691D01*
X95377000Y-48558865D01*
X99029782Y-48558865D01*
X99060095Y-48684528D01*
X99371149Y-49239246D01*
X99870807Y-49632703D01*
X100483000Y-49805000D01*
X101473000Y-49805000D01*
X101473000Y-48307000D01*
X101727000Y-48307000D01*
X101727000Y-49805000D01*
X102717000Y-49805000D01*
X103329193Y-49632703D01*
X103828851Y-49239246D01*
X104139905Y-48684528D01*
X104170218Y-48558865D01*
X104050740Y-48307000D01*
X101727000Y-48307000D01*
X101473000Y-48307000D01*
X99149260Y-48307000D01*
X99029782Y-48558865D01*
X95377000Y-48558865D01*
X95377000Y-47801135D01*
X99029782Y-47801135D01*
X99149260Y-48053000D01*
X101473000Y-48053000D01*
X101473000Y-46555000D01*
X101727000Y-46555000D01*
X101727000Y-48053000D01*
X104050740Y-48053000D01*
X104170218Y-47801135D01*
X104139905Y-47675472D01*
X103828851Y-47120754D01*
X103329193Y-46727297D01*
X102717000Y-46555000D01*
X101727000Y-46555000D01*
X101473000Y-46555000D01*
X100483000Y-46555000D01*
X99870807Y-46727297D01*
X99371149Y-47120754D01*
X99060095Y-47675472D01*
X99029782Y-47801135D01*
X95377000Y-47801135D01*
X95377000Y-42190000D01*
X98972560Y-42190000D01*
X98972560Y-44170000D01*
X99021843Y-44417765D01*
X99162191Y-44627809D01*
X99372235Y-44768157D01*
X99620000Y-44817440D01*
X103580000Y-44817440D01*
X103827765Y-44768157D01*
X104037809Y-44627809D01*
X104178157Y-44417765D01*
X104227440Y-44170000D01*
X104227440Y-43965000D01*
X106354843Y-43965000D01*
X107885000Y-45495158D01*
X107885000Y-45985548D01*
X108088242Y-46476217D01*
X108463783Y-46851758D01*
X108954452Y-47055000D01*
X109485548Y-47055000D01*
X109976217Y-46851758D01*
X110351758Y-46476217D01*
X110555000Y-45985548D01*
X110555000Y-45495158D01*
X110815158Y-45235000D01*
X118277025Y-45235000D01*
X118623783Y-45581758D01*
X119114452Y-45785000D01*
X119645548Y-45785000D01*
X120136217Y-45581758D01*
X120511758Y-45206217D01*
X120715000Y-44715548D01*
X120715000Y-44184452D01*
X120511758Y-43693783D01*
X120136217Y-43318242D01*
X119645548Y-43115000D01*
X119114452Y-43115000D01*
X118623783Y-43318242D01*
X118277025Y-43665000D01*
X110567310Y-43665000D01*
X110489999Y-43649622D01*
X110412688Y-43665000D01*
X110412684Y-43665000D01*
X110183708Y-43710546D01*
X110064625Y-43790115D01*
X109989591Y-43840251D01*
X109989589Y-43840253D01*
X109924047Y-43884047D01*
X109880253Y-43949589D01*
X109444842Y-44385000D01*
X108995158Y-44385000D01*
X107289749Y-42679592D01*
X107245953Y-42614047D01*
X106986292Y-42440546D01*
X106757316Y-42395000D01*
X106757312Y-42395000D01*
X106680000Y-42379622D01*
X106602688Y-42395000D01*
X104227440Y-42395000D01*
X104227440Y-42190000D01*
X104178157Y-41942235D01*
X104037809Y-41732191D01*
X103827765Y-41591843D01*
X103580000Y-41542560D01*
X99620000Y-41542560D01*
X99372235Y-41591843D01*
X99162191Y-41732191D01*
X99021843Y-41942235D01*
X98972560Y-42190000D01*
X95377000Y-42190000D01*
X95377000Y-40080000D01*
X137033000Y-40080000D01*
X137033000Y-68453000D01*
G04 #@! TD*
M02*
